<?xml version="1.0" encoding="UTF-8" standalone="no"?><!DOCTYPE svg PUBLIC "-//W3C//DTD SVG 1.1//EN" "http://www.w3.org/Graphics/SVG/1.1/DTD/svg11.dtd"><svg width="100%" height="100%" viewBox="0 0 10667 6000" version="1.1" xmlns="http://www.w3.org/2000/svg" xmlns:xlink="http://www.w3.org/1999/xlink" xml:space="preserve" xmlns:serif="http://www.serif.com/" style="fill-rule:evenodd;clip-rule:evenodd;stroke-linecap:round;stroke-linejoin:round;stroke-miterlimit:1.5;"><g id="Get-Informed" serif:id="Get Informed"><path d="M7881.21,751.933c-0,-68.375 -55.512,-123.887 -123.887,-123.887l-2258.46,0c-68.375,0 -123.886,55.512 -123.886,123.887l-0,2973.33c-0,68.375 55.511,123.887 123.886,123.887l2258.46,-0c68.375,-0 123.887,-55.512 123.887,-123.887l-0,-2973.33Z" style="fill:#fff;stroke:#000;stroke-width:12.5px;"/><path d="M7564.79,3343.14c-0,-70.411 -57.165,-127.575 -127.575,-127.575l-892.43,-0c-70.411,-0 -127.575,57.164 -127.575,127.575l-0,1.881c-0,70.41 57.164,127.575 127.575,127.575l892.43,-0c70.41,-0 127.575,-57.165 127.575,-127.575l-0,-1.881Z" style="fill:#a0dae3;"/><path d="M6512.4,1856.75c0,-100.888 -81.909,-182.797 -182.797,-182.797l-3361.35,0c-100.888,0 -182.797,81.909 -182.797,182.797l-0,3332.4c-0,100.888 81.909,182.797 182.797,182.797l3361.35,-0c100.888,-0 182.797,-81.909 182.797,-182.797l0,-3332.4Z" style="fill:#fff;stroke:#000;stroke-width:12.5px;"/><ellipse cx="6664.72" cy="1326.14" rx="344.442" ry="332.674"/><path d="M7359.12,1870.21c0,-9.273 -7.528,-16.801 -16.801,-16.801l-805.121,-0c-9.273,-0 -16.801,7.528 -16.801,16.801l-0,33.601c-0,9.273 7.528,16.801 16.801,16.801l805.121,0c9.273,0 16.801,-7.528 16.801,-16.801l0,-33.601Z"/><path d="M7009.16,2025.73c0,-6.902 -5.604,-12.506 -12.506,-12.506l-463.752,-0c-6.902,-0 -12.506,5.604 -12.506,12.506l-0,25.013c-0,6.903 5.604,12.507 12.506,12.507l463.752,0c6.902,0 12.506,-5.604 12.506,-12.507l0,-25.013Z"/><path d="M7564.79,2386.31c-0,-6.088 -4.943,-11.031 -11.031,-11.031l-1022.33,-0c-6.088,-0 -11.03,4.943 -11.03,11.031l-0,22.061c-0,6.088 4.942,11.03 11.03,11.03l1022.33,0c6.088,0 11.031,-4.942 11.031,-11.03l-0,-22.061Z"/><path d="M7564.79,2508.33c-0,-6.088 -4.943,-11.031 -11.031,-11.031l-1022.33,0c-6.088,0 -11.03,4.943 -11.03,11.031l-0,22.061c-0,6.088 4.942,11.03 11.03,11.03l1022.33,0c6.088,0 11.031,-4.942 11.031,-11.03l-0,-22.061Z"/><path d="M7564.79,2609.46c-0,-6.088 -4.943,-11.03 -11.031,-11.03l-1022.33,-0c-6.088,-0 -11.03,4.942 -11.03,11.03l-0,22.061c-0,6.088 4.942,11.031 11.03,11.031l1022.33,-0c6.088,-0 11.031,-4.943 11.031,-11.031l-0,-22.061Z"/><path d="M7564.79,2724.79c-0,-6.088 -4.943,-11.031 -11.031,-11.031l-1022.33,0c-6.088,0 -11.03,4.943 -11.03,11.031l-0,22.061c-0,6.088 4.942,11.031 11.03,11.031l1022.33,-0c6.088,-0 11.031,-4.943 11.031,-11.031l-0,-22.061Z"/><path d="M7204.44,2837.29c-0,-6.088 -4.943,-11.031 -11.031,-11.031l-661.985,-0c-6.088,-0 -11.03,4.943 -11.03,11.031l-0,22.061c-0,6.088 4.942,11.03 11.03,11.03l661.985,0c6.088,0 11.031,-4.942 11.031,-11.03l-0,-22.061Z"/><path d="M6315.15,2185.04c0,-23.944 -19.44,-43.384 -43.384,-43.384l-3176.22,-0c-23.944,-0 -43.384,19.44 -43.384,43.384l0,822.79c0,23.945 19.44,43.384 43.384,43.384l3176.22,0c23.944,0 43.384,-19.439 43.384,-43.384l0,-822.79Z" style="fill:#fff;stroke:#000;stroke-width:12.5px;"/><path d="M6315.15,3207.53c0,-23.945 -19.44,-43.385 -43.384,-43.385l-3176.22,0c-23.944,0 -43.384,19.44 -43.384,43.385l0,822.79c0,23.944 19.44,43.384 43.384,43.384l3176.22,0c23.944,0 43.384,-19.44 43.384,-43.384l0,-822.79Z" style="fill:#fff;stroke:#000;stroke-width:12.5px;"/><path d="M6315.15,4253.22c0,-23.944 -19.44,-43.384 -43.384,-43.384l-3176.22,0c-23.944,0 -43.384,19.44 -43.384,43.384l0,822.791c0,23.944 19.44,43.384 43.384,43.384l3176.22,-0c23.944,-0 43.384,-19.44 43.384,-43.384l0,-822.791Z" style="fill:#fff;stroke:#000;stroke-width:12.5px;"/><path d="M3731.49,2454.91c-0,-67.101 -54.478,-121.579 -121.58,-121.579l-243.158,-0c-67.101,-0 -121.579,54.478 -121.579,121.579l-0,243.158c-0,67.102 54.478,121.58 121.579,121.58l243.158,-0c67.102,-0 121.58,-54.478 121.58,-121.58l-0,-243.158Z" style="fill:#fff;stroke:#000;stroke-width:12.5px;"/><path d="M3731.49,3503.94c-0,-67.102 -54.478,-121.58 -121.58,-121.58l-243.158,0c-67.101,0 -121.579,54.478 -121.579,121.58l-0,243.158c-0,67.101 54.478,121.579 121.579,121.579l243.158,0c67.102,0 121.58,-54.478 121.58,-121.579l-0,-243.158Z" style="fill:#fff;stroke:#000;stroke-width:12.5px;"/><path d="M3731.49,4530.38c-0,-67.101 -54.478,-121.579 -121.58,-121.579l-243.158,-0c-67.101,-0 -121.579,54.478 -121.579,121.579l-0,243.158c-0,67.102 54.478,121.579 121.579,121.579l243.158,0c67.102,0 121.58,-54.477 121.58,-121.579l-0,-243.158Z" style="fill:#fff;stroke:#000;stroke-width:12.5px;"/><path d="M4278.83,2347.07c-0,-7.582 -6.156,-13.738 -13.738,-13.738l-301.27,-0c-7.582,-0 -13.738,6.156 -13.738,13.738l-0,27.476c-0,7.583 6.156,13.739 13.738,13.739l301.27,-0c7.582,-0 13.738,-6.156 13.738,-13.739l-0,-27.476Z" style="fill:#d80d3d;"/><path d="M5364.74,2458.79c-0,-7.763 -6.302,-14.065 -14.064,-14.065l-1386.53,0c-7.762,0 -14.064,6.302 -14.064,14.065l-0,28.129c-0,7.762 6.302,14.064 14.064,14.064l1386.53,-0c7.762,-0 14.064,-6.302 14.064,-14.064l-0,-28.129Z"/><path d="M5364.74,2568.84c-0,-7.762 -6.302,-14.064 -14.064,-14.064l-1386.53,-0c-7.762,-0 -14.064,6.302 -14.064,14.064l-0,28.129c-0,7.763 6.302,14.065 14.064,14.065l1386.53,-0c7.762,-0 14.064,-6.302 14.064,-14.065l-0,-28.129Z"/><path d="M5364.74,2671.28c-0,-7.762 -6.302,-14.064 -14.064,-14.064l-1386.53,-0c-7.762,-0 -14.064,6.302 -14.064,14.064l-0,28.129c-0,7.762 6.302,14.064 14.064,14.064l1386.53,0c7.762,0 14.064,-6.302 14.064,-14.064l-0,-28.129Z" style="fill:#e9e9e9;"/><path d="M5364.74,2777.45c-0,-7.762 -6.302,-14.064 -14.064,-14.064l-1386.53,-0c-7.762,-0 -14.064,6.302 -14.064,14.064l-0,28.129c-0,7.762 6.302,14.065 14.064,14.065l1386.53,-0c7.762,-0 14.064,-6.303 14.064,-14.065l-0,-28.129Z" style="fill:#e9e9e9;"/><path d="M4278.83,3397.06c-0,-7.583 -6.156,-13.739 -13.738,-13.739l-301.27,0c-7.582,0 -13.738,6.156 -13.738,13.739l-0,27.476c-0,7.582 6.156,13.738 13.738,13.738l301.27,0c7.582,0 13.738,-6.156 13.738,-13.738l-0,-27.476Z" style="fill:#d80d3d;"/><path d="M5364.74,3508.78c-0,-7.762 -6.302,-14.064 -14.064,-14.064l-1386.53,-0c-7.762,-0 -14.064,6.302 -14.064,14.064l-0,28.129c-0,7.762 6.302,14.065 14.064,14.065l1386.53,-0c7.762,-0 14.064,-6.303 14.064,-14.065l-0,-28.129Z"/><path d="M5364.74,3618.84c-0,-7.762 -6.302,-14.064 -14.064,-14.064l-1386.53,-0c-7.762,-0 -14.064,6.302 -14.064,14.064l-0,28.129c-0,7.762 6.302,14.064 14.064,14.064l1386.53,0c7.762,0 14.064,-6.302 14.064,-14.064l-0,-28.129Z"/><path d="M5364.74,3721.27c-0,-7.763 -6.302,-14.065 -14.064,-14.065l-1386.53,0c-7.762,0 -14.064,6.302 -14.064,14.065l-0,28.128c-0,7.763 6.302,14.065 14.064,14.065l1386.53,-0c7.762,-0 14.064,-6.302 14.064,-14.065l-0,-28.128Z" style="fill:#e9e9e9;"/><path d="M5364.74,3827.45c-0,-7.762 -6.302,-14.065 -14.064,-14.065l-1386.53,0c-7.762,0 -14.064,6.303 -14.064,14.065l-0,28.129c-0,7.762 6.302,14.064 14.064,14.064l1386.53,0c7.762,0 14.064,-6.302 14.064,-14.064l-0,-28.129Z" style="fill:#e9e9e9;"/><path d="M4274.54,4430.36c0,-7.583 -6.156,-13.739 -13.738,-13.739l-301.27,0c-7.582,0 -13.738,6.156 -13.738,13.739l0,27.476c0,7.582 6.156,13.738 13.738,13.738l301.27,0c7.582,0 13.738,-6.156 13.738,-13.738l0,-27.476Z" style="fill:#d80d3d;"/><path d="M6118.49,4542.08c0,-7.762 -6.302,-14.064 -14.064,-14.064l-2144.57,-0c-7.763,-0 -14.065,6.302 -14.065,14.064l0,28.129c0,7.762 6.302,14.064 14.065,14.064l2144.57,0c7.762,0 14.064,-6.302 14.064,-14.064l0,-28.129Z"/><path d="M5360.44,4652.13c0,-7.762 -6.302,-14.065 -14.064,-14.065l-1386.53,0c-7.763,0 -14.065,6.303 -14.065,14.065l0,28.129c0,7.762 6.302,14.064 14.065,14.064l1386.53,0c7.762,0 14.064,-6.302 14.064,-14.064l0,-28.129Z"/><path d="M6118.49,4754.57c0,-7.762 -6.302,-14.064 -14.064,-14.064l-2144.57,0c-7.763,0 -14.065,6.302 -14.065,14.064l0,28.129c0,7.763 6.302,14.065 14.065,14.065l2144.57,-0c7.762,-0 14.064,-6.302 14.064,-14.065l0,-28.129Z" style="fill:#e9e9e9;"/><path d="M5360.44,4860.74c0,-7.763 -6.302,-14.065 -14.064,-14.065l-1386.53,0c-7.763,0 -14.065,6.302 -14.065,14.065l0,28.129c0,7.762 6.302,14.064 14.065,14.064l1386.53,0c7.762,0 14.064,-6.302 14.064,-14.064l0,-28.129Z" style="fill:#e9e9e9;"/></g></svg>