<?xml version="1.0" encoding="UTF-8" standalone="no"?><!DOCTYPE svg PUBLIC "-//W3C//DTD SVG 1.1//EN" "http://www.w3.org/Graphics/SVG/1.1/DTD/svg11.dtd"><svg width="100%" height="100%" viewBox="0 0 10667 6000" version="1.1" xmlns="http://www.w3.org/2000/svg" xmlns:xlink="http://www.w3.org/1999/xlink" xml:space="preserve" xmlns:serif="http://www.serif.com/" style="fill-rule:evenodd;clip-rule:evenodd;stroke-linecap:round;stroke-linejoin:round;stroke-miterlimit:1.5;"><g id="Middle-Section" serif:id="Middle Section"><path d="M8033.47,739.042c-0,-116.76 -94.795,-211.555 -211.555,-211.555l-3504.56,0c-116.761,0 -211.555,94.795 -211.555,211.555l-0,4521.92c-0,116.76 94.794,211.555 211.555,211.555l3504.56,-0c116.76,-0 211.555,-94.795 211.555,-211.555l-0,-4521.92Z" style="fill:#fff;stroke:#000;stroke-width:12.5px;"/><path d="M6560.87,2394.94c-0,-48.217 -39.146,-87.363 -87.364,-87.363l-3752.94,-0c-48.217,-0 -87.363,39.146 -87.363,87.363l0,1447.24c0,48.217 39.146,87.363 87.363,87.363l3752.94,0c48.218,0 87.364,-39.146 87.364,-87.363l-0,-1447.24Z" style="fill:#fff;stroke:#000;stroke-width:12.5px;"/><path d="M3905.87,2897.88c-0,-123.694 -100.424,-224.118 -224.118,-224.118l-448.236,0c-123.694,0 -224.117,100.424 -224.117,224.118l-0,448.236c-0,123.694 100.423,224.118 224.117,224.118l448.236,-0c123.694,-0 224.118,-100.424 224.118,-224.118l-0,-448.236Z" style="fill:none;stroke:#f3f3f3;stroke-width:12.5px;"/><path d="M4590.3,2690.54c-0,-9.259 -7.517,-16.777 -16.777,-16.777l-274.733,0c-9.259,0 -16.776,7.518 -16.776,16.777l-0,33.553c-0,9.259 7.517,16.776 16.776,16.776l274.733,0c9.26,0 16.777,-7.517 16.777,-16.776l-0,-33.553Z" style="fill:#d80d3d;"/><path d="M6194.45,2805.21c-0,-7.679 -6.234,-13.913 -13.913,-13.913l-1884.62,-0c-7.679,-0 -13.913,6.234 -13.913,13.913l-0,27.826c-0,7.678 6.234,13.912 13.913,13.912l1884.62,0c7.679,0 13.913,-6.234 13.913,-13.912l-0,-27.826Z"/><path d="M5789.71,2935.74c-0,-7.679 -6.234,-13.913 -13.913,-13.913l-1479.87,0c-7.679,0 -13.913,6.234 -13.913,13.913l-0,27.826c-0,7.679 6.234,13.913 13.913,13.913l1479.87,-0c7.679,-0 13.913,-6.234 13.913,-13.913l-0,-27.826Z"/><path d="M6194.45,3169.87c-0,-7.678 -6.234,-13.912 -13.913,-13.912l-1884.62,-0c-7.679,-0 -13.913,6.234 -13.913,13.912l-0,27.826c-0,7.679 6.234,13.913 13.913,13.913l1884.62,0c7.679,0 13.913,-6.234 13.913,-13.913l-0,-27.826Z"/><path d="M6194.45,3293.92c-0,-7.679 -6.234,-13.913 -13.913,-13.913l-1884.62,0c-7.679,0 -13.913,6.234 -13.913,13.913l-0,27.826c-0,7.679 6.234,13.913 13.913,13.913l1884.62,-0c7.679,-0 13.913,-6.234 13.913,-13.913l-0,-27.826Z"/><path d="M6194.45,3413.14c-0,-7.679 -6.234,-13.913 -13.913,-13.913l-1884.62,0c-7.679,0 -13.913,6.234 -13.913,13.913l-0,27.826c-0,7.678 6.234,13.913 13.913,13.913l1884.62,-0c7.679,-0 13.913,-6.235 13.913,-13.913l-0,-27.826Z"/><path d="M5146.9,3526.55c0,-7.679 -6.234,-13.913 -13.913,-13.913l-837.062,0c-7.679,0 -13.913,6.234 -13.913,13.913l-0,27.826c-0,7.678 6.234,13.913 13.913,13.913l837.062,-0c7.679,-0 13.913,-6.235 13.913,-13.913l0,-27.826Z"/><path d="M4611,1126.47c0,-6.171 -5.009,-11.18 -11.18,-11.18l-255.068,-0c-6.17,-0 -11.179,5.009 -11.179,11.18l-0,22.359c-0,6.17 5.009,11.18 11.179,11.18l255.068,-0c6.171,-0 11.18,-5.01 11.18,-11.18l0,-22.359Z"/><path d="M4472.29,1239.72c0,-7.285 -5.914,-13.199 -13.199,-13.199l-112.315,0c-7.285,0 -13.199,5.914 -13.199,13.199l-0,26.399c-0,7.285 5.914,13.199 13.199,13.199l112.315,0c7.285,0 13.199,-5.914 13.199,-13.199l0,-26.399Z" style="fill:#a0dae3;"/><path d="M4472.31,4204.14c0,-7.285 -5.914,-13.2 -13.199,-13.2l-112.315,0c-7.285,0 -13.2,5.915 -13.2,13.2l0,26.398c0,7.285 5.915,13.199 13.2,13.199l112.315,0c7.285,0 13.199,-5.914 13.199,-13.199l0,-26.398Z" style="fill:#a0dae3;"/><path d="M5088.56,1239.72c0,-7.285 -5.914,-13.199 -13.199,-13.199l-497.324,0c-7.285,0 -13.199,5.914 -13.199,13.199l-0,26.399c-0,7.285 5.914,13.199 13.199,13.199l497.324,0c7.285,0 13.199,-5.914 13.199,-13.199l0,-26.399Z"/><path d="M4472.29,1362.86c0,-7.285 -5.914,-13.2 -13.199,-13.2l-112.315,0c-7.285,0 -13.199,5.915 -13.199,13.2l-0,26.398c-0,7.285 5.914,13.2 13.199,13.2l112.315,-0c7.285,-0 13.199,-5.915 13.199,-13.2l0,-26.398Z" style="fill:#a0dae3;"/><path d="M5088.56,1362.86c0,-7.285 -5.914,-13.2 -13.199,-13.2l-497.324,0c-7.285,0 -13.199,5.915 -13.199,13.2l-0,26.398c-0,7.285 5.914,13.2 13.199,13.2l497.324,-0c7.285,-0 13.199,-5.915 13.199,-13.2l0,-26.398Z"/><path d="M5088.56,1595.19c0,-7.284 -5.914,-13.199 -13.199,-13.199l-497.324,0c-7.285,0 -13.199,5.915 -13.199,13.199l-0,26.399c-0,7.285 5.914,13.199 13.199,13.199l497.324,0c7.285,0 13.199,-5.914 13.199,-13.199l0,-26.399Z"/><path d="M5088.56,1719.57c0,-7.285 -5.914,-13.199 -13.199,-13.199l-497.324,-0c-7.285,-0 -13.199,5.914 -13.199,13.199l-0,26.399c-0,7.285 5.914,13.199 13.199,13.199l497.324,0c7.285,0 13.199,-5.914 13.199,-13.199l0,-26.399Z"/><path d="M5088.56,1814.85c0,-7.285 -5.914,-13.2 -13.199,-13.2l-497.324,0c-7.285,0 -13.199,5.915 -13.199,13.2l-0,26.398c-0,7.285 5.914,13.199 13.199,13.199l497.324,0c7.285,0 13.199,-5.914 13.199,-13.199l0,-26.398Z"/><path d="M4472.29,1471.14c0,-7.284 -5.914,-13.199 -13.199,-13.199l-112.315,0c-7.285,0 -13.199,5.915 -13.199,13.199l-0,26.399c-0,7.285 5.914,13.199 13.199,13.199l112.315,0c7.285,0 13.199,-5.914 13.199,-13.199l0,-26.399Z" style="fill:#a0dae3;"/><path d="M4472.29,1595.19c0,-7.284 -5.914,-13.199 -13.199,-13.199l-112.315,0c-7.285,0 -13.199,5.915 -13.199,13.199l-0,26.399c-0,7.285 5.914,13.199 13.199,13.199l112.315,0c7.285,0 13.199,-5.914 13.199,-13.199l0,-26.399Z" style="fill:#a0dae3;"/><path d="M4472.29,1719.57c0,-7.285 -5.914,-13.199 -13.199,-13.199l-112.315,-0c-7.285,-0 -13.199,5.914 -13.199,13.199l-0,26.399c-0,7.285 5.914,13.199 13.199,13.199l112.315,0c7.285,0 13.199,-5.914 13.199,-13.199l0,-26.399Z" style="fill:#a0dae3;"/><path d="M4472.29,1841.24c0,-7.285 -5.914,-13.199 -13.199,-13.199l-112.315,-0c-7.285,-0 -13.199,5.914 -13.199,13.199l-0,26.399c-0,7.285 5.914,13.199 13.199,13.199l112.315,0c7.285,0 13.199,-5.914 13.199,-13.199l0,-26.399Z" style="fill:#a0dae3;"/><path d="M5205.17,1471.14c-0,-7.284 -5.915,-13.199 -13.2,-13.199l-613.934,0c-7.285,0 -13.199,5.915 -13.199,13.199l-0,26.399c-0,7.285 5.914,13.199 13.199,13.199l613.934,0c7.285,0 13.2,-5.914 13.2,-13.199l-0,-26.399Z"/><path d="M5087.16,4204.14c-0,-7.285 -5.915,-13.2 -13.2,-13.2l-497.324,0c-7.285,0 -13.199,5.915 -13.199,13.2l-0,26.398c-0,7.285 5.914,13.199 13.199,13.199l497.324,0c7.285,0 13.2,-5.914 13.2,-13.199l-0,-26.398Z"/><path d="M4470.89,4318.7c-0,-7.285 -5.915,-13.199 -13.2,-13.199l-112.315,-0c-7.284,-0 -13.199,5.914 -13.199,13.199l0,26.399c0,7.285 5.915,13.199 13.199,13.199l112.315,0c7.285,0 13.2,-5.914 13.2,-13.199l-0,-26.399Z" style="fill:#a0dae3;"/><path d="M5087.16,4323.03c-0,-7.285 -5.915,-13.199 -13.2,-13.199l-497.324,-0c-7.285,-0 -13.199,5.914 -13.199,13.199l-0,26.399c-0,7.284 5.914,13.199 13.199,13.199l497.324,-0c7.285,-0 13.2,-5.915 13.2,-13.199l-0,-26.399Z"/><path d="M5087.16,4551.04c-0,-7.285 -5.915,-13.199 -13.2,-13.199l-497.324,-0c-7.285,-0 -13.199,5.914 -13.199,13.199l-0,26.399c-0,7.285 5.914,13.199 13.199,13.199l497.324,0c7.285,0 13.2,-5.914 13.2,-13.199l-0,-26.399Z"/><path d="M5087.16,4675.41c-0,-7.285 -5.915,-13.199 -13.2,-13.199l-497.324,-0c-7.285,-0 -13.199,5.914 -13.199,13.199l-0,26.399c-0,7.284 5.914,13.199 13.199,13.199l497.324,-0c7.285,-0 13.2,-5.915 13.2,-13.199l-0,-26.399Z"/><path d="M5087.16,4795.48c-0,-7.285 -5.915,-13.199 -13.2,-13.199l-497.324,-0c-7.285,-0 -13.199,5.914 -13.199,13.199l-0,26.399c-0,7.285 5.914,13.199 13.199,13.199l497.324,0c7.285,0 13.2,-5.914 13.2,-13.199l-0,-26.399Z"/><path d="M4470.89,4426.98c-0,-7.285 -5.915,-13.199 -13.2,-13.199l-112.315,-0c-7.284,-0 -13.199,5.914 -13.199,13.199l0,26.399c0,7.285 5.915,13.199 13.199,13.199l112.315,0c7.285,0 13.2,-5.914 13.2,-13.199l-0,-26.399Z" style="fill:#a0dae3;"/><path d="M4470.89,4551.04c-0,-7.285 -5.915,-13.199 -13.2,-13.199l-112.315,-0c-7.284,-0 -13.199,5.914 -13.199,13.199l0,26.399c0,7.285 5.915,13.199 13.199,13.199l112.315,0c7.285,0 13.2,-5.914 13.2,-13.199l-0,-26.399Z" style="fill:#a0dae3;"/><path d="M4470.89,4675.41c-0,-7.285 -5.915,-13.199 -13.2,-13.199l-112.315,-0c-7.284,-0 -13.199,5.914 -13.199,13.199l0,26.399c0,7.284 5.915,13.199 13.199,13.199l112.315,-0c7.285,-0 13.2,-5.915 13.2,-13.199l-0,-26.399Z" style="fill:#a0dae3;"/><path d="M4470.89,4797.09c-0,-7.285 -5.915,-13.199 -13.2,-13.199l-112.315,-0c-7.284,-0 -13.199,5.914 -13.199,13.199l0,26.398c0,7.285 5.915,13.2 13.199,13.2l112.315,-0c7.285,-0 13.2,-5.915 13.2,-13.2l-0,-26.398Z" style="fill:#a0dae3;"/><path d="M5203.77,4426.98c0,-7.285 -5.914,-13.199 -13.199,-13.199l-613.935,-0c-7.285,-0 -13.199,5.914 -13.199,13.199l-0,26.399c-0,7.285 5.914,13.199 13.199,13.199l613.935,0c7.285,0 13.199,-5.914 13.199,-13.199l0,-26.399Z"/><path d="M5964.15,1122.75c0,-7.526 -6.111,-13.637 -13.638,-13.637l-524.875,-0c-7.527,-0 -13.638,6.111 -13.638,13.637l-0,27.276c-0,7.527 6.111,13.638 13.638,13.638l524.875,-0c7.527,-0 13.638,-6.111 13.638,-13.638l0,-27.276Z" style="fill:#d80d3d;"/><path d="M6982.93,1228.55c0,-6.008 -4.878,-10.886 -10.886,-10.886l-1549.16,-0c-6.009,-0 -10.887,4.878 -10.887,10.886l-0,21.774c-0,6.009 4.878,10.887 10.887,10.887l1549.16,-0c6.008,-0 10.886,-4.878 10.886,-10.887l0,-21.774Z"/><path d="M7745.12,1597.23c0,-5.972 -4.848,-10.82 -10.82,-10.82l-2311.48,-0c-5.972,-0 -10.82,4.848 -10.82,10.82l-0,21.639c-0,5.972 4.848,10.82 10.82,10.82l2311.48,0c5.972,0 10.82,-4.848 10.82,-10.82l0,-21.639Z"/><path d="M7745.12,1716.58c0,-5.971 -4.848,-10.82 -10.82,-10.82l-2311.48,0c-5.972,0 -10.82,4.849 -10.82,10.82l-0,21.64c-0,5.972 4.848,10.82 10.82,10.82l2311.48,-0c5.972,-0 10.82,-4.848 10.82,-10.82l0,-21.64Z"/><path d="M7745.12,1838.41c0,-5.972 -4.848,-10.82 -10.82,-10.82l-2311.48,-0c-5.972,-0 -10.82,4.848 -10.82,10.82l-0,21.639c-0,5.972 4.848,10.82 10.82,10.82l2311.48,0c5.972,0 10.82,-4.848 10.82,-10.82l0,-21.639Z"/><path d="M7745.12,1953.72c0,-5.971 -4.848,-10.82 -10.82,-10.82l-2311.48,0c-5.972,0 -10.82,4.849 -10.82,10.82l-0,21.64c-0,5.972 4.848,10.82 10.82,10.82l2311.48,-0c5.972,-0 10.82,-4.848 10.82,-10.82l0,-21.64Z"/><path d="M7745.12,2296.75c0,-5.972 -4.848,-10.82 -10.82,-10.82l-2311.48,0c-5.972,0 -10.82,4.848 -10.82,10.82l-0,21.64c-0,5.971 4.848,10.82 10.82,10.82l2311.48,-0c5.972,-0 10.82,-4.849 10.82,-10.82l0,-21.64Z"/><path d="M7745.12,2435.88c0,-5.972 -4.848,-10.82 -10.82,-10.82l-1144.92,0c-5.971,0 -10.82,4.848 -10.82,10.82l0,21.64c0,5.972 4.849,10.82 10.82,10.82l1144.92,-0c5.972,-0 10.82,-4.848 10.82,-10.82l0,-21.64Z"/><path d="M7745.12,2538.27c0,-5.971 -4.848,-10.819 -10.82,-10.819l-1144.92,-0c-5.971,-0 -10.82,4.848 -10.82,10.819l0,21.64c0,5.972 4.849,10.82 10.82,10.82l1144.92,0c5.972,0 10.82,-4.848 10.82,-10.82l0,-21.64Z"/><path d="M7727.43,3377.2c-0,-5.971 -4.849,-10.82 -10.82,-10.82l-1144.92,0c-5.972,0 -10.82,4.849 -10.82,10.82l-0,21.64c-0,5.972 4.848,10.82 10.82,10.82l1144.92,-0c5.971,-0 10.82,-4.848 10.82,-10.82l-0,-21.64Z"/><path d="M7745.12,3726.85c0,-5.971 -4.848,-10.819 -10.82,-10.819l-1144.92,-0c-5.971,-0 -10.82,4.848 -10.82,10.819l0,21.64c0,5.972 4.849,10.82 10.82,10.82l1144.92,0c5.972,0 10.82,-4.848 10.82,-10.82l0,-21.64Z"/><path d="M7745.12,3726.85c0,-5.971 -4.848,-10.819 -10.82,-10.819l-1144.92,-0c-5.971,-0 -10.82,4.848 -10.82,10.819l0,21.64c0,5.972 4.849,10.82 10.82,10.82l1144.92,0c5.972,0 10.82,-4.848 10.82,-10.82l0,-21.64Z"/><path d="M7745.12,3845.28c0,-5.972 -4.848,-10.82 -10.82,-10.82l-1144.92,-0c-5.971,-0 -10.82,4.848 -10.82,10.82l0,21.64c0,5.971 4.849,10.819 10.82,10.819l1144.92,0c5.972,0 10.82,-4.848 10.82,-10.819l0,-21.64Z"/><path d="M7745.12,3726.85c0,-5.971 -4.848,-10.819 -10.82,-10.819l-1144.92,-0c-5.971,-0 -10.82,4.848 -10.82,10.819l0,21.64c0,5.972 4.849,10.82 10.82,10.82l1144.92,0c5.972,0 10.82,-4.848 10.82,-10.82l0,-21.64Z"/><path d="M7745.12,3965c0,-5.972 -4.848,-10.82 -10.82,-10.82l-1144.92,-0c-5.971,-0 -10.82,4.848 -10.82,10.82l0,21.639c0,5.972 4.849,10.82 10.82,10.82l1144.92,0c5.972,0 10.82,-4.848 10.82,-10.82l0,-21.639Z"/><path d="M7745.12,4093.92c0,-5.972 -4.848,-10.82 -10.82,-10.82l-2320.32,-0c-5.971,-0 -10.819,4.848 -10.819,10.82l-0,21.64c-0,5.971 4.848,10.819 10.819,10.819l2320.32,0c5.972,0 10.82,-4.848 10.82,-10.819l0,-21.64Z"/><path d="M5811.68,4213.43c0,-6.869 -5.577,-12.446 -12.446,-12.446l-383.629,-0c-6.87,-0 -12.446,5.577 -12.446,12.446l-0,24.892c-0,6.87 5.576,12.447 12.446,12.447l383.629,-0c6.869,-0 12.446,-5.577 12.446,-12.447l0,-24.892Z"/><path d="M7745.12,4437.64c0,-6.869 -5.577,-12.446 -12.446,-12.446l-2317.07,-0c-6.87,-0 -12.446,5.577 -12.446,12.446l-0,24.892c-0,6.87 5.576,12.446 12.446,12.446l2317.07,0c6.869,0 12.446,-5.576 12.446,-12.446l0,-24.892Z"/><path d="M7749.54,4561.88c0,-6.869 -5.577,-12.446 -12.446,-12.446l-2317.07,-0c-6.869,-0 -12.446,5.577 -12.446,12.446l-0,24.892c-0,6.87 5.577,12.447 12.446,12.447l2317.07,-0c6.869,-0 12.446,-5.577 12.446,-12.447l0,-24.892Z"/><path d="M7749.54,4673.9c0,-6.869 -5.577,-12.446 -12.446,-12.446l-2317.07,0c-6.869,0 -12.446,5.577 -12.446,12.446l-0,24.893c-0,6.869 5.577,12.446 12.446,12.446l2317.07,-0c6.869,-0 12.446,-5.577 12.446,-12.446l0,-24.893Z"/><path d="M6732.1,4794.52c-0,-6.87 -5.577,-12.447 -12.447,-12.447l-1299.62,0c-6.869,0 -12.446,5.577 -12.446,12.447l-0,24.892c-0,6.869 5.577,12.446 12.446,12.446l1299.62,0c6.87,0 12.447,-5.577 12.447,-12.446l-0,-24.892Z"/><path d="M6719.58,3489.78c-0,-5.972 -4.848,-10.82 -10.82,-10.82l-137.066,0c-5.972,0 -10.82,4.848 -10.82,10.82l-0,21.64c-0,5.972 4.848,10.82 10.82,10.82l137.066,-0c5.972,-0 10.82,-4.848 10.82,-10.82l-0,-21.64Z"/><path d="M6719.58,2664.37c-0,-5.972 -4.848,-10.82 -10.82,-10.82l-119.378,-0c-5.971,-0 -10.82,4.848 -10.82,10.82l0,21.64c0,5.971 4.849,10.819 10.82,10.819l119.378,0c5.972,0 10.82,-4.848 10.82,-10.819l-0,-21.64Z"/><path d="M5812.22,2077.56c-0,-5.972 -4.848,-10.82 -10.82,-10.82l-378.582,-0c-5.972,-0 -10.82,4.848 -10.82,10.82l-0,21.639c-0,5.972 4.848,10.82 10.82,10.82l378.582,0c5.972,0 10.82,-4.848 10.82,-10.82l-0,-21.639Z"/><path d="M7745.12,1228.55c0,-6.008 -4.878,-10.886 -10.887,-10.886l-494.831,-0c-6.009,-0 -10.887,4.878 -10.887,10.886l-0,21.774c-0,6.009 4.878,10.887 10.887,10.887l494.831,-0c6.009,-0 10.887,-4.878 10.887,-10.887l0,-21.774Z"/><path d="M6982.93,1360.43c0,-6.009 -4.878,-10.887 -10.886,-10.887l-1549.16,0c-6.009,0 -10.887,4.878 -10.887,10.887l-0,21.774c-0,6.008 4.878,10.886 10.887,10.886l1549.16,0c6.008,0 10.886,-4.878 10.886,-10.886l0,-21.774Z"/></g></svg>