<?xml version="1.0" encoding="UTF-8" standalone="no"?><!DOCTYPE svg PUBLIC "-//W3C//DTD SVG 1.1//EN" "http://www.w3.org/Graphics/SVG/1.1/DTD/svg11.dtd"><svg width="100%" height="100%" viewBox="0 0 10667 6000" version="1.1" xmlns="http://www.w3.org/2000/svg" xmlns:xlink="http://www.w3.org/1999/xlink" xml:space="preserve" xmlns:serif="http://www.serif.com/" style="fill-rule:evenodd;clip-rule:evenodd;stroke-linecap:round;stroke-linejoin:round;stroke-miterlimit:1.5;"><g id="Notifcation"><path d="M2054.48,2678.77c0,0 -100.146,-688.407 246.838,-1075.39c390.148,-435.126 1746.63,-1280.23 3413.43,-970.721c1653.34,307.008 2031.89,372.65 2427.85,709.579c399.865,340.256 912.488,1094.61 -141.049,2312.85c-1053.54,1218.24 -1294.61,336.094 -1627.37,652.294c-332.756,316.2 -1098.36,1192.88 -1832.59,1301.2c-584.061,86.164 -2109.48,-174.896 -2487.11,-2929.81Z" style="fill:#f5f5f5;"/><circle cx="6614.86" cy="4963.63" r="240.681" style="fill:#f5f5f5;"/><circle cx="7474.57" cy="4622.38" r="100.564" style="fill:#f5f5f5;"/><circle cx="8142.59" cy="1007.85" r="141.049" style="fill:#f5f5f5;"/><circle cx="6259.77" cy="4622.38" r="100.564"/><path d="M7881.25,1981.63c-0,-60.71 -49.289,-109.999 -109.999,-109.999l-3463.09,-0c-60.71,-0 -109.999,49.289 -109.999,109.999l0,2172.71c0,60.71 49.289,109.999 109.999,109.999l3463.09,-0c60.71,-0 109.999,-49.289 109.999,-109.999l-0,-2172.71Z" style="fill:#fff;stroke:#000;stroke-width:12.5px;"/><g id="Phone"><path d="M5339.05,509.179c-0,-72.343 -58.733,-131.076 -131.076,-131.076l-2589.03,0c-72.343,0 -131.076,58.733 -131.076,131.076l-0,4778.16c-0,72.343 58.733,131.076 131.076,131.076l2589.03,-0c72.343,-0 131.076,-58.733 131.076,-131.076l-0,-4778.16Z" style="fill:#fff;stroke:#000;stroke-width:12.5px;"/><circle cx="2938.43" cy="931.375" r="85.438" style="fill:#d9d9d9;"/><path d="M5020.53,853.952c-0,-4.423 -3.592,-8.015 -8.015,-8.015l-211.245,0c-4.423,0 -8.014,3.592 -8.014,8.015l-0,16.03c-0,4.424 3.591,8.015 8.014,8.015l211.245,-0c4.423,-0 8.015,-3.591 8.015,-8.015l-0,-16.03Z" style="fill:#d9d9d9;"/><path d="M5020.53,925.066c-0,-4.423 -3.592,-8.015 -8.015,-8.015l-211.245,0c-4.423,0 -8.014,3.592 -8.014,8.015l-0,16.03c-0,4.424 3.591,8.015 8.014,8.015l211.245,-0c4.423,-0 8.015,-3.591 8.015,-8.015l-0,-16.03Z" style="fill:#d9d9d9;"/><path d="M3378.51,1310.89c-0,-7.915 -6.426,-14.34 -14.341,-14.34l-490.041,-0c-7.915,-0 -14.34,6.425 -14.34,14.34l-0,28.682c-0,7.915 6.425,14.341 14.34,14.341l490.041,-0c7.915,-0 14.341,-6.426 14.341,-14.341l-0,-28.682Z" style="fill:#d80d3d;"/><path d="M3378.51,3307.96c-0,-7.915 -6.426,-14.34 -14.341,-14.34l-490.041,-0c-7.915,-0 -14.34,6.425 -14.34,14.34l-0,28.682c-0,7.915 6.425,14.341 14.34,14.341l490.041,-0c7.915,-0 14.341,-6.426 14.341,-14.341l-0,-28.682Z" style="fill:#d80d3d;"/><path d="M3378.51,4717.47c-0,-7.915 -6.426,-14.341 -14.341,-14.341l-490.041,0c-7.915,0 -14.34,6.426 -14.34,14.341l-0,28.681c-0,7.915 6.425,14.341 14.34,14.341l490.041,0c7.915,0 14.341,-6.426 14.341,-14.341l-0,-28.681Z" style="fill:#d80d3d;"/><path d="M4309.78,1424.25c0,-7.915 -6.426,-14.341 -14.34,-14.341l-1421.32,-0c-7.915,-0 -14.34,6.426 -14.34,14.341l-0,28.681c-0,7.915 6.425,14.341 14.34,14.341l1421.32,-0c7.914,-0 14.34,-6.426 14.34,-14.341l0,-28.681Z"/><path d="M5043.82,1424.25c-0,-7.915 -6.426,-14.341 -14.341,-14.341l-510.125,-0c-7.915,-0 -14.341,6.426 -14.341,14.341l0,28.681c0,7.915 6.426,14.341 14.341,14.341l510.125,-0c7.915,-0 14.341,-6.426 14.341,-14.341l-0,-28.681Z"/><path d="M4081.32,1540.56c0,-7.915 -6.426,-14.341 -14.341,-14.341l-1192.85,0c-7.915,0 -14.34,6.426 -14.34,14.341l-0,28.682c-0,7.914 6.425,14.34 14.34,14.34l1192.85,0c7.915,0 14.341,-6.426 14.341,-14.34l0,-28.682Z"/><path d="M5043.82,1778.71c-0,-7.915 -6.426,-14.34 -14.341,-14.34l-2155.35,-0c-7.915,-0 -14.34,6.425 -14.34,14.34l-0,28.682c-0,7.915 6.425,14.341 14.34,14.341l2155.35,-0c7.915,-0 14.341,-6.426 14.341,-14.341l-0,-28.682Z"/><path d="M4309.78,3420.81c0,-7.914 -6.426,-14.34 -14.34,-14.34l-1421.32,-0c-7.915,-0 -14.34,6.426 -14.34,14.34l-0,28.682c-0,7.915 6.425,14.341 14.34,14.341l1421.32,-0c7.914,-0 14.34,-6.426 14.34,-14.341l0,-28.682Z"/><path d="M5016.22,3420.81c-0,-7.914 -6.426,-14.34 -14.341,-14.34l-374.584,-0c-7.915,-0 -14.341,6.426 -14.341,14.34l0,28.682c0,7.915 6.426,14.341 14.341,14.341l374.584,-0c7.915,-0 14.341,-6.426 14.341,-14.341l-0,-28.682Z"/><path d="M5016.22,3420.81c-0,-7.914 -6.426,-14.34 -14.341,-14.34l-475.737,-0c-7.914,-0 -14.34,6.426 -14.34,14.34l-0,28.682c-0,7.915 6.426,14.341 14.34,14.341l475.737,-0c7.915,-0 14.341,-6.426 14.341,-14.341l-0,-28.682Z"/><path d="M4072.25,3551.45c-0,-7.915 -6.426,-14.341 -14.341,-14.341l-1183.78,0c-7.915,0 -14.34,6.426 -14.34,14.341l-0,28.681c-0,7.915 6.425,14.341 14.34,14.341l1183.78,0c7.915,0 14.341,-6.426 14.341,-14.341l-0,-28.681Z"/><path d="M5016.22,3772.58c-0,-7.915 -6.426,-14.34 -14.341,-14.34l-2127.75,-0c-7.915,-0 -14.34,6.425 -14.34,14.34l-0,28.682c-0,7.915 6.425,14.341 14.34,14.341l2127.75,-0c7.915,-0 14.341,-6.426 14.341,-14.341l-0,-28.682Z"/><path d="M4309.78,4827.55c0,-7.915 -6.426,-14.341 -14.34,-14.341l-1421.32,0c-7.915,0 -14.34,6.426 -14.34,14.341l-0,28.681c-0,7.915 6.425,14.341 14.34,14.341l1421.32,0c7.914,0 14.34,-6.426 14.34,-14.341l0,-28.681Z"/><path d="M5016.22,4827.55c-0,-7.915 -6.426,-14.341 -14.341,-14.341l-475.737,0c-7.914,0 -14.34,6.426 -14.34,14.341l-0,28.681c-0,7.915 6.426,14.341 14.34,14.341l475.737,0c7.915,0 14.341,-6.426 14.341,-14.341l-0,-28.681Z"/><path d="M4072.25,4958.19c-0,-7.914 -6.426,-14.34 -14.341,-14.34l-1183.78,-0c-7.915,-0 -14.34,6.426 -14.34,14.34l-0,28.682c-0,7.915 6.425,14.341 14.34,14.341l1183.78,-0c7.915,-0 14.341,-6.426 14.341,-14.341l-0,-28.682Z"/><path d="M5016.22,5179.32c-0,-7.915 -6.426,-14.341 -14.341,-14.341l-2127.75,0c-7.915,0 -14.34,6.426 -14.34,14.341l-0,28.681c-0,7.915 6.425,14.341 14.34,14.341l2127.75,0c7.915,0 14.341,-6.426 14.341,-14.341l-0,-28.681Z"/><path d="M5016.22,3891.81c-0,-7.915 -6.426,-14.341 -14.341,-14.341l-2127.75,0c-7.915,0 -14.34,6.426 -14.34,14.341l-0,28.681c-0,7.915 6.425,14.341 14.34,14.341l2127.75,0c7.915,0 14.341,-6.426 14.341,-14.341l-0,-28.681Z"/><path d="M5016.22,4013.05c-0,-7.915 -6.426,-14.341 -14.341,-14.341l-2127.75,0c-7.915,0 -14.34,6.426 -14.34,14.341l-0,28.681c-0,7.915 6.425,14.341 14.34,14.341l2127.75,0c7.915,0 14.341,-6.426 14.341,-14.341l-0,-28.681Z"/><path d="M5016.22,4129.3c-0,-7.915 -6.426,-14.341 -14.341,-14.341l-2127.75,-0c-7.915,-0 -14.34,6.426 -14.34,14.341l-0,28.681c-0,7.915 6.425,14.341 14.34,14.341l2127.75,-0c7.915,-0 14.341,-6.426 14.341,-14.341l-0,-28.681Z"/><path d="M3260.48,4243.11c0,-7.915 -6.426,-14.341 -14.341,-14.341l-372.009,0c-7.915,0 -14.34,6.426 -14.34,14.341l-0,28.682c-0,7.915 6.425,14.34 14.34,14.34l372.009,0c7.915,0 14.341,-6.425 14.341,-14.34l0,-28.682Z"/><path d="M5043.82,1893.94c-0,-7.915 -6.426,-14.341 -14.341,-14.341l-2155.35,0c-7.915,0 -14.34,6.426 -14.34,14.341l-0,28.681c-0,7.915 6.425,14.341 14.34,14.341l2155.35,0c7.915,0 14.341,-6.426 14.341,-14.341l-0,-28.681Z"/><path d="M5043.82,2012.99c-0,-7.915 -6.426,-14.341 -14.341,-14.341l-2155.35,0c-7.915,0 -14.34,6.426 -14.34,14.341l-0,28.681c-0,7.915 6.425,14.341 14.34,14.341l2155.35,0c7.915,0 14.341,-6.426 14.341,-14.341l-0,-28.681Z"/><path d="M5043.82,2128.71c-0,-7.915 -6.426,-14.34 -14.341,-14.34l-2155.35,-0c-7.915,-0 -14.34,6.425 -14.34,14.34l-0,28.682c-0,7.915 6.425,14.341 14.34,14.341l2155.35,-0c7.915,-0 14.341,-6.426 14.341,-14.341l-0,-28.682Z"/><path d="M5043.82,2482.68c-0,-7.915 -6.426,-14.341 -14.341,-14.341l-2155.35,-0c-7.915,-0 -14.34,6.426 -14.34,14.341l-0,28.681c-0,7.915 6.425,14.341 14.34,14.341l2155.35,-0c7.915,-0 14.341,-6.426 14.341,-14.341l-0,-28.681Z"/><path d="M5043.82,2600.61c-0,-7.915 -6.426,-14.341 -14.341,-14.341l-2155.35,0c-7.915,0 -14.34,6.426 -14.34,14.341l-0,28.681c-0,7.915 6.425,14.341 14.34,14.341l2155.35,0c7.915,0 14.341,-6.426 14.341,-14.341l-0,-28.681Z"/><path d="M5043.82,2720.79c-0,-7.915 -6.426,-14.341 -14.341,-14.341l-2155.35,0c-7.915,0 -14.34,6.426 -14.34,14.341l-0,28.682c-0,7.914 6.425,14.34 14.34,14.34l2155.35,0c7.915,0 14.341,-6.426 14.341,-14.34l-0,-28.682Z"/><path d="M4075.61,2833.14c0,-7.915 -6.426,-14.341 -14.341,-14.341l-1187.14,0c-7.915,0 -14.34,6.426 -14.34,14.341l-0,28.682c-0,7.914 6.425,14.34 14.34,14.34l1187.14,0c7.915,0 14.341,-6.426 14.341,-14.34l0,-28.682Z"/><path d="M3263.06,2251.84c0,-7.915 -6.426,-14.341 -14.341,-14.341l-374.584,0c-7.915,0 -14.34,6.426 -14.34,14.341l-0,28.682c-0,7.914 6.425,14.34 14.34,14.34l374.584,0c7.915,0 14.341,-6.426 14.341,-14.34l0,-28.682Z"/><path d="M3263.06,3065.62c0,-7.915 -6.426,-14.34 -14.341,-14.34l-374.584,-0c-7.915,-0 -14.34,6.425 -14.34,14.34l-0,28.682c-0,7.915 6.425,14.34 14.34,14.34l374.584,0c7.915,0 14.341,-6.425 14.341,-14.34l0,-28.682Z" style="fill:#e8e8e8;"/><path d="M3870.97,3065.62c-0,-7.915 -6.426,-14.34 -14.341,-14.34l-374.584,-0c-7.915,-0 -14.341,6.425 -14.341,14.34l0,28.682c0,7.915 6.426,14.34 14.341,14.34l374.584,0c7.915,0 14.341,-6.425 14.341,-14.34l-0,-28.682Z" style="fill:#e8e8e8;"/><path d="M4450.44,3065.62c0,-7.915 -6.426,-14.34 -14.341,-14.34l-374.584,-0c-7.915,-0 -14.34,6.425 -14.34,14.34l-0,28.682c-0,7.915 6.425,14.34 14.34,14.34l374.584,0c7.915,0 14.341,-6.425 14.341,-14.34l0,-28.682Z" style="fill:#e8e8e8;"/><path d="M5016.22,3065.62c-0,-7.915 -6.426,-14.34 -14.341,-14.34l-374.584,-0c-7.915,-0 -14.341,6.425 -14.341,14.34l0,28.682c0,7.915 6.426,14.34 14.341,14.34l374.584,0c7.915,0 14.341,-6.425 14.341,-14.34l-0,-28.682Z" style="fill:#e8e8e8;"/><path d="M3263.06,4484.1c0,-7.915 -6.426,-14.341 -14.341,-14.341l-374.584,0c-7.915,0 -14.34,6.426 -14.34,14.341l-0,28.682c-0,7.914 6.425,14.34 14.34,14.34l374.584,0c7.915,0 14.341,-6.426 14.341,-14.34l0,-28.682Z" style="fill:#e8e8e8;"/><path d="M3870.97,4484.1c-0,-7.915 -6.426,-14.341 -14.341,-14.341l-374.584,0c-7.915,0 -14.341,6.426 -14.341,14.341l0,28.682c0,7.914 6.426,14.34 14.341,14.34l374.584,0c7.915,0 14.341,-6.426 14.341,-14.34l-0,-28.682Z" style="fill:#e8e8e8;"/><path d="M4450.44,4484.1c0,-7.915 -6.426,-14.341 -14.341,-14.341l-374.584,0c-7.915,0 -14.34,6.426 -14.34,14.341l-0,28.682c-0,7.914 6.425,14.34 14.34,14.34l374.584,0c7.915,0 14.341,-6.426 14.341,-14.34l0,-28.682Z" style="fill:#e8e8e8;"/><path d="M5016.22,4484.1c-0,-7.915 -6.426,-14.341 -14.341,-14.341l-374.584,0c-7.915,0 -14.341,6.426 -14.341,14.341l0,28.682c0,7.914 6.426,14.34 14.341,14.34l374.584,0c7.915,0 14.341,-6.426 14.341,-14.34l-0,-28.682Z" style="fill:#e8e8e8;"/><path d="M5020.53,992.769c-0,-4.424 -3.592,-8.015 -8.015,-8.015l-211.245,-0c-4.423,-0 -8.014,3.591 -8.014,8.015l-0,16.03c-0,4.423 3.591,8.014 8.014,8.014l211.245,0c4.423,0 8.015,-3.591 8.015,-8.014l-0,-16.03Z" style="fill:#d9d9d9;"/></g><path d="M7203.8,1870.57c-0,-66.202 -53.748,-119.95 -119.95,-119.95l-1167.81,-0c-66.202,-0 -119.949,53.748 -119.949,119.95l-0,2.116c-0,66.202 53.747,119.95 119.949,119.95l1167.81,-0c66.202,-0 119.95,-53.748 119.95,-119.95l-0,-2.116Z"/><path d="M5943.98,2152.99c-0,-6.914 -5.613,-12.526 -12.526,-12.526l-492.095,-0c-6.913,-0 -12.526,5.612 -12.526,12.526l0,25.051c0,6.914 5.613,12.526 12.526,12.526l492.095,0c6.913,0 12.526,-5.612 12.526,-12.526l-0,-25.051Z" style="fill:#d80d3d;"/><path d="M6878.9,2274.91c0,-7.285 -5.913,-13.198 -13.198,-13.198l-1425.67,-0c-7.284,-0 -13.198,5.913 -13.198,13.198l0,26.395c0,7.284 5.914,13.198 13.198,13.198l1425.67,0c7.285,0 13.198,-5.914 13.198,-13.198l0,-26.395Z"/><path d="M7585.74,2274.91c-0,-7.285 -5.914,-13.198 -13.198,-13.198l-486.412,-0c-7.284,-0 -13.197,5.913 -13.197,13.198l-0,26.395c-0,7.284 5.913,13.198 13.197,13.198l486.412,0c7.284,0 13.198,-5.914 13.198,-13.198l-0,-26.395Z"/><path d="M6636.56,2385.01c-0,-7.284 -5.914,-13.198 -13.198,-13.198l-1178.99,0c-7.284,0 -13.198,5.914 -13.198,13.198l0,26.396c0,7.284 5.914,13.198 13.198,13.198l1178.99,-0c7.284,-0 13.198,-5.914 13.198,-13.198l-0,-26.396Z"/><path d="M7585.74,2619.47c-0,-7.284 -5.914,-13.198 -13.198,-13.198l-2132.52,0c-7.284,0 -13.198,5.914 -13.198,13.198l0,26.396c0,7.284 5.914,13.198 13.198,13.198l2132.52,-0c7.284,-0 13.198,-5.914 13.198,-13.198l-0,-26.396Z"/><path d="M7585.74,2619.47c-0,-7.284 -5.914,-13.198 -13.198,-13.198l-2132.52,0c-7.284,0 -13.198,5.914 -13.198,13.198l0,26.396c0,7.284 5.914,13.198 13.198,13.198l2132.52,-0c7.284,-0 13.198,-5.914 13.198,-13.198l-0,-26.396Z"/><path d="M7585.74,2741.97c-0,-7.285 -5.914,-13.198 -13.198,-13.198l-2132.52,-0c-7.284,-0 -13.198,5.913 -13.198,13.198l0,26.395c0,7.284 5.914,13.198 13.198,13.198l2132.52,0c7.284,0 13.198,-5.914 13.198,-13.198l-0,-26.395Z"/><path d="M7585.74,2741.97c-0,-7.285 -5.914,-13.198 -13.198,-13.198l-2132.52,-0c-7.284,-0 -13.198,5.913 -13.198,13.198l0,26.395c0,7.284 5.914,13.198 13.198,13.198l2132.52,0c7.284,0 13.198,-5.914 13.198,-13.198l-0,-26.395Z"/><path d="M7590.08,2862.58c-0,-7.284 -5.914,-13.198 -13.198,-13.198l-2132.52,0c-7.284,0 -13.198,5.914 -13.198,13.198l0,26.396c0,7.284 5.914,13.198 13.198,13.198l2132.52,-0c7.284,-0 13.198,-5.914 13.198,-13.198l-0,-26.396Z"/><path d="M7590.08,2862.58c-0,-7.284 -5.914,-13.198 -13.198,-13.198l-2132.52,0c-7.284,0 -13.198,5.914 -13.198,13.198l0,26.396c0,7.284 5.914,13.198 13.198,13.198l2132.52,-0c7.284,-0 13.198,-5.914 13.198,-13.198l-0,-26.396Z"/><path d="M7590.08,2974.46c-0,-7.284 -5.914,-13.198 -13.198,-13.198l-2132.52,-0c-7.284,-0 -13.198,5.914 -13.198,13.198l0,26.395c0,7.284 5.914,13.198 13.198,13.198l2132.52,0c7.284,0 13.198,-5.914 13.198,-13.198l-0,-26.395Z"/><path d="M7590.08,3331.06c-0,-7.284 -5.914,-13.198 -13.198,-13.198l-2132.52,-0c-7.284,-0 -13.198,5.914 -13.198,13.198l0,26.395c0,7.284 5.914,13.198 13.198,13.198l2132.52,0c7.284,0 13.198,-5.914 13.198,-13.198l-0,-26.395Z"/><path d="M7590.08,3448.86c-0,-7.284 -5.914,-13.198 -13.198,-13.198l-2132.52,0c-7.284,0 -13.198,5.914 -13.198,13.198l0,26.396c0,7.284 5.914,13.198 13.198,13.198l2132.52,-0c7.284,-0 13.198,-5.914 13.198,-13.198l-0,-26.396Z"/><path d="M7590.08,3565.78c-0,-7.284 -5.914,-13.198 -13.198,-13.198l-2132.52,0c-7.284,0 -13.198,5.914 -13.198,13.198l0,26.396c0,7.284 5.914,13.198 13.198,13.198l2132.52,-0c7.284,-0 13.198,-5.914 13.198,-13.198l-0,-26.396Z"/><path d="M6638.12,3680.62c-0,-7.284 -5.914,-13.197 -13.198,-13.197l-1180.55,-0c-7.284,-0 -13.198,5.913 -13.198,13.197l0,26.396c0,7.284 5.914,13.198 13.198,13.198l1180.55,-0c7.284,-0 13.198,-5.914 13.198,-13.198l-0,-26.396Z"/><path d="M5828.95,3095.97c-0,-7.284 -5.914,-13.198 -13.198,-13.198l-371.382,0c-7.284,0 -13.198,5.914 -13.198,13.198l0,26.396c0,7.284 5.914,13.198 13.198,13.198l371.382,-0c7.284,-0 13.198,-5.914 13.198,-13.198l-0,-26.396Z"/><path d="M5828.95,3918.7c-0,-7.284 -5.914,-13.198 -13.198,-13.198l-371.382,0c-7.284,0 -13.198,5.914 -13.198,13.198l0,26.396c0,7.284 5.914,13.198 13.198,13.198l371.382,-0c7.284,-0 13.198,-5.914 13.198,-13.198l-0,-26.396Z" style="fill:#e8e8e8;"/><path d="M6432.42,3918.7c-0,-7.284 -5.914,-13.198 -13.198,-13.198l-371.382,0c-7.284,0 -13.198,5.914 -13.198,13.198l0,26.396c0,7.284 5.914,13.198 13.198,13.198l371.382,-0c7.284,-0 13.198,-5.914 13.198,-13.198l-0,-26.396Z" style="fill:#e8e8e8;"/><path d="M7002.93,3918.7c0,-7.284 -5.914,-13.198 -13.198,-13.198l-371.382,0c-7.284,0 -13.197,5.914 -13.197,13.198l-0,26.396c-0,7.284 5.913,13.198 13.197,13.198l371.382,-0c7.284,-0 13.198,-5.914 13.198,-13.198l0,-26.396Z" style="fill:#e8e8e8;"/><path d="M7588.11,3918.7c0,-7.284 -5.914,-13.198 -13.198,-13.198l-371.382,0c-7.284,0 -13.197,5.914 -13.197,13.198l-0,26.396c-0,7.284 5.913,13.198 13.197,13.198l371.382,-0c7.284,-0 13.198,-5.914 13.198,-13.198l0,-26.396Z" style="fill:#e8e8e8;"/><text x="5993.13px" y="1913.25px" style="font-family:'Avenir-Black', 'Avenir', sans-serif;font-weight:800;font-size:117.577px;fill:#fff;">BREAKING NEWS</text></g></svg>