<?xml version="1.0" encoding="UTF-8" standalone="no"?><!DOCTYPE svg PUBLIC "-//W3C//DTD SVG 1.1//EN" "http://www.w3.org/Graphics/SVG/1.1/DTD/svg11.dtd"><svg width="100%" height="100%" viewBox="0 0 10667 6000" version="1.1" xmlns="http://www.w3.org/2000/svg" xmlns:xlink="http://www.w3.org/1999/xlink" xml:space="preserve" xmlns:serif="http://www.serif.com/" style="fill-rule:evenodd;clip-rule:evenodd;stroke-linecap:round;stroke-linejoin:round;stroke-miterlimit:1.5;"><g id="Background"><circle cx="1967.67" cy="984.224" r="106.282" style="fill:#f5f5f5;"/><circle cx="2788.34" cy="942.485" r="28.459" style="fill:#f5f5f5;"/><circle cx="2323.95" cy="4665.27" r="28.459" style="fill:#f5f5f5;"/><circle cx="6423.22" cy="5049.34" r="142.851" style="fill:#f5f5f5;"/><circle cx="6828.98" cy="4832.41" r="74.075" style="fill:#f5f5f5;"/><circle cx="8664.31" cy="3445.54" r="27.279" style="fill:#f5f5f5;"/><circle cx="7721.04" cy="935.818" r="36.325" style="fill:#f5f5f5;"/><circle cx="8055.39" cy="867.446" r="104.697" style="fill:#f5f5f5;"/><path d="M5951.79,4824.42c-0,-0 -1363.12,863.714 -1989.01,727.728c-625.895,-135.985 -898.056,-371.097 -1085.58,-539.048c-189.184,-169.44 -812.909,-545.04 -989.298,-1636.2c-176.389,-1091.16 120.257,-2568.33 1074.34,-2801.91c954.08,-233.581 2352.18,-167.732 3244.26,120.007c892.084,287.74 2324.21,688.139 2719.58,1618.94c395.376,930.801 -121.676,1973.11 -668.01,2161.38c-546.334,188.267 -1492.83,28.943 -1692.23,82.05c-199.406,53.107 -614.051,267.063 -614.051,267.063Z" style="fill:#f5f5f5;"/></g><g id="View-Base" serif:id="View Base"><path d="M2983.88,1353.75c0,-39.839 -32.344,-72.184 -72.184,-72.184l-1425.79,-0c-39.84,-0 -72.185,32.345 -72.185,72.184l0,3037.47c0,39.839 32.345,72.184 72.185,72.184l1425.79,-0c39.84,-0 72.184,-32.345 72.184,-72.184l0,-3037.47Z" style="fill:#fff;stroke:#000;stroke-width:12.5px;"/><path d="M7535.77,850.659c0,-60.425 -49.057,-109.483 -109.482,-109.483l-4083.99,0c-60.425,0 -109.483,49.058 -109.483,109.483l0,2162.51c0,60.425 49.058,109.482 109.483,109.482l4083.99,0c60.425,0 109.482,-49.057 109.482,-109.482l0,-2162.51Z" style="fill:#fff;stroke:#000;stroke-width:12.5px;"/><path d="M4845.72,3449.9c0,-34.526 -28.03,-62.557 -62.556,-62.557l-1473.75,0c-34.526,0 -62.556,28.031 -62.556,62.557l-0,1235.62c-0,34.526 28.03,62.556 62.556,62.556l1473.75,0c34.526,0 62.556,-28.03 62.556,-62.556l0,-1235.62Z" style="fill:#fff;stroke:#000;stroke-width:12.5px;"/><path d="M8447.99,3455.2c0,-23.436 -19.027,-42.463 -42.463,-42.463l-3234.04,-0c-23.436,-0 -42.463,19.027 -42.463,42.463l0,838.74c0,23.436 19.027,42.464 42.463,42.464l3234.04,-0c23.436,-0 42.463,-19.028 42.463,-42.464l0,-838.74Z" style="fill:#fff;stroke:#000;stroke-width:12.5px;"/><path d="M9252.95,1314.98c0,-37.043 -30.074,-67.116 -67.116,-67.116l-1325.69,-0c-37.042,-0 -67.116,30.073 -67.116,67.116l0,1741.03c0,37.043 30.074,67.117 67.116,67.117l1325.69,-0c37.042,-0 67.116,-30.074 67.116,-67.117l0,-1741.03Z" style="fill:#fff;stroke:#000;stroke-width:12.5px;"/></g><g id="Phone_View"><circle cx="1621.1" cy="1535.12" r="43.44" style="fill:#d9d9d9;"/><path d="M2807.49,1491c0,-2.572 -2.088,-4.66 -4.66,-4.66l-124.049,-0c-2.571,-0 -4.659,2.088 -4.659,4.66l-0,9.319c-0,2.572 2.088,4.66 4.659,4.66l124.049,-0c2.572,-0 4.66,-2.088 4.66,-4.66l0,-9.319Z" style="fill:#d9d9d9;"/><path d="M2808.07,1528.8c0,-2.572 -2.088,-4.66 -4.66,-4.66l-124.049,0c-2.571,0 -4.659,2.088 -4.659,4.66l-0,9.319c-0,2.572 2.088,4.66 4.659,4.66l124.049,0c2.572,0 4.66,-2.088 4.66,-4.66l0,-9.319Z" style="fill:#d9d9d9;"/><path d="M2807.49,1568.53c0,-2.572 -2.088,-4.66 -4.66,-4.66l-124.049,0c-2.571,0 -4.659,2.088 -4.659,4.66l-0,9.32c-0,2.571 2.088,4.659 4.659,4.659l124.049,0c2.572,0 4.66,-2.088 4.66,-4.659l0,-9.32Z" style="fill:#d9d9d9;"/><path d="M1868.06,1751.59c0,-3.269 -2.654,-5.923 -5.923,-5.923l-273.992,0c-3.269,0 -5.923,2.654 -5.923,5.923l-0,11.847c-0,3.27 2.654,5.924 5.923,5.924l273.992,-0c3.269,-0 5.923,-2.654 5.923,-5.924l0,-11.847Z" style="fill:#d80d3d;"/><path d="M1868.06,2882.03c0,-3.269 -2.654,-5.923 -5.923,-5.923l-273.992,0c-3.269,0 -5.923,2.654 -5.923,5.923l-0,11.847c-0,3.27 2.654,5.924 5.923,5.924l273.992,-0c3.269,-0 5.923,-2.654 5.923,-5.924l0,-11.847Z" style="fill:#d80d3d;"/><path d="M1868.06,3681.2c0,-3.269 -2.654,-5.923 -5.923,-5.923l-273.992,0c-3.269,0 -5.923,2.654 -5.923,5.923l-0,11.847c-0,3.27 2.654,5.924 5.923,5.924l273.992,-0c3.269,-0 5.923,-2.654 5.923,-5.924l0,-11.847Z" style="fill:#d80d3d;"/><path d="M2398.82,1817.3c-0,-3.269 -2.654,-5.923 -5.924,-5.923l-804.748,-0c-3.269,-0 -5.923,2.654 -5.923,5.923l-0,11.847c-0,3.269 2.654,5.923 5.923,5.923l804.748,0c3.27,0 5.924,-2.654 5.924,-5.923l-0,-11.847Z"/><path d="M2809.96,2014.96c-0,-4.162 -3.38,-7.541 -7.542,-7.541l-1212.65,0c-4.162,0 -7.541,3.379 -7.541,7.541l-0,15.083c-0,4.162 3.379,7.541 7.541,7.541l1212.65,0c4.162,0 7.542,-3.379 7.542,-7.541l-0,-15.083Z"/><path d="M2809.96,2413.91c-0,-4.162 -3.38,-7.541 -7.542,-7.541l-1212.65,-0c-4.162,-0 -7.541,3.379 -7.541,7.541l-0,15.083c-0,4.162 3.379,7.541 7.541,7.541l1212.65,0c4.162,0 7.542,-3.379 7.542,-7.541l-0,-15.083Z"/><path d="M2400.51,2946.89c0,-4.162 -3.379,-7.541 -7.541,-7.541l-803.2,-0c-4.162,-0 -7.541,3.379 -7.541,7.541l-0,15.083c-0,4.162 3.379,7.541 7.541,7.541l803.2,0c4.162,0 7.541,-3.379 7.541,-7.541l0,-15.083Z"/><path d="M2809.96,3146.99c-0,-4.162 -3.38,-7.541 -7.542,-7.541l-1212.65,-0c-4.162,-0 -7.541,3.379 -7.541,7.541l-0,15.083c-0,4.162 3.379,7.541 7.541,7.541l1212.65,0c4.162,0 7.542,-3.379 7.542,-7.541l-0,-15.083Z"/><path d="M2809.96,3214.59c-0,-4.162 -3.38,-7.542 -7.542,-7.542l-1212.65,0c-4.162,0 -7.541,3.38 -7.541,7.542l-0,15.082c-0,4.163 3.379,7.542 7.541,7.542l1212.65,-0c4.162,-0 7.542,-3.379 7.542,-7.542l-0,-15.082Z"/><path d="M2809.96,3280.97c-0,-4.162 -3.38,-7.541 -7.542,-7.541l-1212.65,-0c-4.162,-0 -7.541,3.379 -7.541,7.541l-0,15.083c-0,4.162 3.379,7.541 7.541,7.541l1212.65,0c4.162,0 7.542,-3.379 7.542,-7.541l-0,-15.083Z"/><path d="M2809.96,3343.63c-0,-4.162 -3.38,-7.541 -7.542,-7.541l-1212.65,-0c-4.162,-0 -7.541,3.379 -7.541,7.541l-0,15.083c-0,4.162 3.379,7.541 7.541,7.541l1212.65,0c4.162,0 7.542,-3.379 7.542,-7.541l-0,-15.083Z"/><path d="M2809.96,3940.47c-0,-4.162 -3.38,-7.542 -7.542,-7.542l-1212.65,0c-4.162,0 -7.541,3.38 -7.541,7.542l-0,15.082c-0,4.163 3.379,7.542 7.541,7.542l1212.65,-0c4.162,-0 7.542,-3.379 7.542,-7.542l-0,-15.082Z"/><path d="M2809.96,4008.06c-0,-4.162 -3.38,-7.541 -7.542,-7.541l-1212.65,0c-4.162,0 -7.541,3.379 -7.541,7.541l-0,15.083c-0,4.162 3.379,7.541 7.541,7.541l1212.65,0c4.162,0 7.542,-3.379 7.542,-7.541l-0,-15.083Z"/><path d="M2809.96,4074.44c-0,-4.163 -3.38,-7.542 -7.542,-7.542l-1212.65,0c-4.162,0 -7.541,3.379 -7.541,7.542l-0,15.082c-0,4.162 3.379,7.542 7.541,7.542l1212.65,-0c4.162,-0 7.542,-3.38 7.542,-7.542l-0,-15.082Z"/><path d="M2809.96,4137.11c-0,-4.162 -3.38,-7.541 -7.542,-7.541l-1212.65,-0c-4.162,-0 -7.541,3.379 -7.541,7.541l-0,15.083c-0,4.162 3.379,7.541 7.541,7.541l1212.65,-0c4.162,-0 7.542,-3.379 7.542,-7.541l-0,-15.083Z"/><path d="M2809.96,4209.65c-0,-4.162 -3.38,-7.541 -7.542,-7.541l-1212.65,-0c-4.162,-0 -7.541,3.379 -7.541,7.541l-0,15.083c-0,4.162 3.379,7.541 7.541,7.541l1212.65,0c4.162,0 7.542,-3.379 7.542,-7.541l-0,-15.083Z"/><path d="M2333.28,4279.56c-0,-4.162 -3.379,-7.541 -7.542,-7.541l-735.978,-0c-4.162,-0 -7.541,3.379 -7.541,7.541l-0,15.083c-0,4.162 3.379,7.541 7.541,7.541l735.978,0c4.163,0 7.542,-3.379 7.542,-7.541l-0,-15.083Z"/><path d="M2394.23,3744.74c-0,-4.163 -3.379,-7.542 -7.541,-7.542l-796.924,0c-4.162,0 -7.541,3.379 -7.541,7.542l-0,15.082c-0,4.162 3.379,7.542 7.541,7.542l796.924,-0c4.162,-0 7.541,-3.38 7.541,-7.542l-0,-15.082Z"/><path d="M2809.96,3744.74c-0,-4.163 -3.38,-7.542 -7.542,-7.542l-280.934,0c-4.162,0 -7.541,3.379 -7.541,7.542l0,15.082c0,4.162 3.379,7.542 7.541,7.542l280.934,-0c4.162,-0 7.542,-3.38 7.542,-7.542l-0,-15.082Z"/><path d="M2283.44,3813.64c-0,-4.162 -3.379,-7.541 -7.542,-7.541l-686.133,0c-4.162,0 -7.541,3.379 -7.541,7.541l-0,15.083c-0,4.162 3.379,7.541 7.541,7.541l686.133,0c4.163,0 7.542,-3.379 7.542,-7.541l-0,-15.083Z"/><path d="M1804.99,3410.48c0,-4.163 -3.379,-7.542 -7.541,-7.542l-207.681,0c-4.162,0 -7.541,3.379 -7.541,7.542l-0,15.082c-0,4.162 3.379,7.542 7.541,7.542l207.681,-0c4.162,-0 7.541,-3.38 7.541,-7.542l0,-15.082Z"/><path d="M2269.87,3013.73c-0,-4.162 -3.379,-7.541 -7.541,-7.541l-672.566,0c-4.162,0 -7.541,3.379 -7.541,7.541l-0,15.083c-0,4.162 3.379,7.541 7.541,7.541l672.566,0c4.162,0 7.541,-3.379 7.541,-7.541l-0,-15.083Z"/><path d="M2809.96,2946.89c-0,-4.162 -3.38,-7.541 -7.542,-7.541l-284.409,-0c-4.162,-0 -7.541,3.379 -7.541,7.541l0,15.083c0,4.162 3.379,7.541 7.541,7.541l284.409,0c4.162,0 7.542,-3.379 7.542,-7.541l-0,-15.083Z"/><path d="M2809.96,2482.36c-0,-4.162 -3.38,-7.541 -7.542,-7.541l-1212.65,-0c-4.162,-0 -7.541,3.379 -7.541,7.541l-0,15.083c-0,4.162 3.379,7.541 7.541,7.541l1212.65,-0c4.162,-0 7.542,-3.379 7.542,-7.541l-0,-15.083Z"/><path d="M1805.05,2742.56c0,-4.162 -3.379,-7.541 -7.541,-7.541l-207.743,-0c-4.162,-0 -7.541,3.379 -7.541,7.541l-0,15.083c-0,4.162 3.379,7.541 7.541,7.541l207.743,-0c4.162,-0 7.541,-3.379 7.541,-7.541l0,-15.083Z" style="fill:#e8e8e8;"/><path d="M2133.51,2742.56c-0,-4.162 -3.38,-7.541 -7.542,-7.541l-207.742,-0c-4.162,-0 -7.542,3.379 -7.542,7.541l0,15.083c0,4.162 3.38,7.541 7.542,7.541l207.742,-0c4.162,-0 7.542,-3.379 7.542,-7.541l-0,-15.083Z" style="fill:#e8e8e8;"/><path d="M2470.14,2742.56c0,-4.162 -3.379,-7.541 -7.541,-7.541l-207.743,-0c-4.162,-0 -7.541,3.379 -7.541,7.541l-0,15.083c-0,4.162 3.379,7.541 7.541,7.541l207.743,-0c4.162,-0 7.541,-3.379 7.541,-7.541l0,-15.083Z" style="fill:#e8e8e8;"/><path d="M2809.96,2742.56c-0,-4.162 -3.38,-7.541 -7.542,-7.541l-207.742,-0c-4.163,-0 -7.542,3.379 -7.542,7.541l0,15.083c0,4.162 3.379,7.541 7.542,7.541l207.742,-0c4.162,-0 7.542,-3.379 7.542,-7.541l-0,-15.083Z" style="fill:#e8e8e8;"/><path d="M1805.05,3544.95c0,-4.162 -3.379,-7.541 -7.541,-7.541l-207.743,-0c-4.162,-0 -7.541,3.379 -7.541,7.541l-0,15.083c-0,4.162 3.379,7.541 7.541,7.541l207.743,0c4.162,0 7.541,-3.379 7.541,-7.541l0,-15.083Z" style="fill:#e8e8e8;"/><path d="M2133.51,3544.95c-0,-4.162 -3.38,-7.541 -7.542,-7.541l-207.742,-0c-4.162,-0 -7.542,3.379 -7.542,7.541l0,15.083c0,4.162 3.38,7.541 7.542,7.541l207.742,0c4.162,0 7.542,-3.379 7.542,-7.541l-0,-15.083Z" style="fill:#e8e8e8;"/><path d="M2470.14,3544.95c0,-4.162 -3.379,-7.541 -7.541,-7.541l-207.743,-0c-4.162,-0 -7.541,3.379 -7.541,7.541l-0,15.083c-0,4.162 3.379,7.541 7.541,7.541l207.743,0c4.162,0 7.541,-3.379 7.541,-7.541l0,-15.083Z" style="fill:#e8e8e8;"/><path d="M2809.96,3544.95c-0,-4.162 -3.38,-7.541 -7.542,-7.541l-207.742,-0c-4.163,-0 -7.542,3.379 -7.542,7.541l0,15.083c0,4.162 3.379,7.541 7.542,7.541l207.742,0c4.162,0 7.542,-3.379 7.542,-7.541l-0,-15.083Z" style="fill:#e8e8e8;"/><path d="M2809.96,2083.34c-0,-4.162 -3.38,-7.542 -7.542,-7.542l-1212.65,0c-4.162,0 -7.541,3.38 -7.541,7.542l-0,15.082c-0,4.163 3.379,7.542 7.541,7.542l1212.65,-0c4.162,-0 7.542,-3.379 7.542,-7.542l-0,-15.082Z"/><path d="M2809.96,2147.62c-0,-4.162 -3.38,-7.541 -7.542,-7.541l-1212.65,-0c-4.162,-0 -7.541,3.379 -7.541,7.541l-0,15.083c-0,4.162 3.379,7.541 7.541,7.541l1212.65,-0c4.162,-0 7.542,-3.379 7.542,-7.541l-0,-15.083Z"/><path d="M2809.96,2218.59c-0,-4.162 -3.38,-7.541 -7.542,-7.541l-1212.65,-0c-4.162,-0 -7.541,3.379 -7.541,7.541l-0,15.083c-0,4.162 3.379,7.541 7.541,7.541l1212.65,0c4.162,0 7.542,-3.379 7.542,-7.541l-0,-15.083Z"/><path d="M1808.92,2282.4c0,-4.162 -3.379,-7.541 -7.541,-7.541l-211.616,-0c-4.162,-0 -7.541,3.379 -7.541,7.541l-0,15.083c-0,4.162 3.379,7.541 7.541,7.541l211.616,0c4.162,0 7.541,-3.379 7.541,-7.541l0,-15.083Z"/><path d="M2809.96,1817.3c-0,-3.269 -2.655,-5.923 -5.924,-5.923l-277.96,-0c-3.269,-0 -5.923,2.654 -5.923,5.923l-0,11.847c-0,3.269 2.654,5.923 5.923,5.923l277.96,0c3.269,0 5.924,-2.654 5.924,-5.923l-0,-11.847Z"/><path d="M2266.08,1880.76c0,-3.269 -2.654,-5.923 -5.923,-5.923l-672.007,-0c-3.269,-0 -5.923,2.654 -5.923,5.923l-0,11.847c-0,3.269 2.654,5.923 5.923,5.923l672.007,0c3.269,0 5.923,-2.654 5.923,-5.923l0,-11.847Z"/></g><g id="Desktop_View"><path d="M7535.77,853.014c0,-61.725 -50.113,-111.838 -111.838,-111.838l-4074.31,0c-61.725,0 -111.838,50.113 -111.838,111.838l-0,28.995c-0,61.725 50.113,111.838 111.838,111.838l4074.31,0c61.725,0 111.838,-50.113 111.838,-111.838l0,-28.995Z"/><path d="M3900.57,1184.87c0,-4.24 -3.442,-7.681 -7.681,-7.681l-142.709,-0c-4.239,-0 -7.68,3.441 -7.68,7.681l-0,15.361c-0,4.239 3.441,7.681 7.68,7.681l142.709,0c4.239,0 7.681,-3.442 7.681,-7.681l0,-15.361Z"/><path d="M4165.77,1248.89c-0,-4.239 -3.442,-7.681 -7.681,-7.681l-278.388,0c-4.239,0 -7.68,3.442 -7.68,7.681l-0,15.362c-0,4.239 3.441,7.681 7.68,7.681l278.388,-0c4.239,-0 7.681,-3.442 7.681,-7.681l-0,-15.362Z"/><path d="M4099.64,1315.75c-0,-4.239 -3.442,-7.681 -7.681,-7.681l-212.255,-0c-4.239,-0 -7.68,3.442 -7.68,7.681l-0,15.361c-0,4.24 3.441,7.681 7.68,7.681l212.255,0c4.239,0 7.681,-3.441 7.681,-7.681l-0,-15.361Z"/><path d="M4230.96,1383.8c-0,-4.239 -3.442,-7.681 -7.681,-7.681l-343.582,0c-4.239,0 -7.68,3.442 -7.68,7.681l-0,15.362c-0,4.239 3.441,7.68 7.68,7.68l343.582,0c4.239,0 7.681,-3.441 7.681,-7.68l-0,-15.362Z"/><path d="M4031.6,1449.05c0,-4.24 -3.442,-7.681 -7.681,-7.681l-144.217,-0c-4.239,-0 -7.68,3.441 -7.68,7.681l-0,15.361c-0,4.239 3.441,7.681 7.68,7.681l144.217,0c4.239,0 7.681,-3.442 7.681,-7.681l0,-15.361Z"/><path d="M4099.64,1516.2c-0,-4.239 -3.442,-7.681 -7.681,-7.681l-212.255,0c-4.239,0 -7.68,3.442 -7.68,7.681l-0,15.362c-0,4.239 3.441,7.68 7.68,7.68l212.255,0c4.239,0 7.681,-3.441 7.681,-7.68l-0,-15.362Z"/><path d="M4164.69,1582.12c-0,-4.239 -3.442,-7.68 -7.681,-7.68l-277.311,-0c-4.239,-0 -7.68,3.441 -7.68,7.68l-0,15.362c-0,4.239 3.441,7.681 7.68,7.681l277.311,-0c4.239,-0 7.681,-3.442 7.681,-7.681l-0,-15.362Z"/><path d="M3821.53,1247.77c-0,-4.239 -3.442,-7.68 -7.681,-7.68l-63.674,-0c-4.239,-0 -7.68,3.441 -7.68,7.68l-0,15.362c-0,4.239 3.441,7.681 7.68,7.681l63.674,-0c4.239,-0 7.681,-3.442 7.681,-7.681l-0,-15.362Z" style="fill:#a0dae3;"/><path d="M3821.53,1315.75c-0,-4.239 -3.442,-7.681 -7.681,-7.681l-63.674,-0c-4.239,-0 -7.68,3.442 -7.68,7.681l-0,15.361c-0,4.24 3.441,7.681 7.68,7.681l63.674,0c4.239,0 7.681,-3.441 7.681,-7.681l-0,-15.361Z" style="fill:#a0dae3;"/><path d="M3821.53,1384.32c-0,-4.239 -3.442,-7.68 -7.681,-7.68l-63.674,-0c-4.239,-0 -7.68,3.441 -7.68,7.68l-0,15.362c-0,4.239 3.441,7.681 7.68,7.681l63.674,-0c4.239,-0 7.681,-3.442 7.681,-7.681l-0,-15.362Z" style="fill:#a0dae3;"/><path d="M3821.53,1449.9c-0,-4.239 -3.442,-7.681 -7.681,-7.681l-63.674,-0c-4.239,-0 -7.68,3.442 -7.68,7.681l-0,15.361c-0,4.24 3.441,7.681 7.68,7.681l63.674,0c4.239,0 7.681,-3.441 7.681,-7.681l-0,-15.361Z" style="fill:#a0dae3;"/><path d="M3821.53,1516.11c-0,-4.239 -3.442,-7.681 -7.681,-7.681l-63.674,0c-4.239,0 -7.68,3.442 -7.68,7.681l-0,15.362c-0,4.239 3.441,7.681 7.68,7.681l63.674,-0c4.239,-0 7.681,-3.442 7.681,-7.681l-0,-15.362Z" style="fill:#a0dae3;"/><path d="M3821.53,1582.99c-0,-4.239 -3.442,-7.68 -7.681,-7.68l-63.674,-0c-4.239,-0 -7.68,3.441 -7.68,7.68l-0,15.362c-0,4.239 3.441,7.681 7.68,7.681l63.674,-0c4.239,-0 7.681,-3.442 7.681,-7.681l-0,-15.362Z" style="fill:#a0dae3;"/><path d="M4165.77,1787.52c-0,-4.239 -3.442,-7.681 -7.681,-7.681l-278.388,0c-4.239,0 -7.68,3.442 -7.68,7.681l-0,15.361c-0,4.24 3.441,7.681 7.68,7.681l278.388,0c4.239,0 7.681,-3.441 7.681,-7.681l-0,-15.361Z"/><path d="M4099.64,1854.37c-0,-4.239 -3.442,-7.68 -7.681,-7.68l-212.255,-0c-4.239,-0 -7.68,3.441 -7.68,7.68l-0,15.362c-0,4.239 3.441,7.681 7.68,7.681l212.255,-0c4.239,-0 7.681,-3.442 7.681,-7.681l-0,-15.362Z"/><path d="M4230.96,1922.43c-0,-4.24 -3.442,-7.681 -7.681,-7.681l-343.582,-0c-4.239,-0 -7.68,3.441 -7.68,7.681l-0,15.361c-0,4.239 3.441,7.681 7.68,7.681l343.582,-0c4.239,-0 7.681,-3.442 7.681,-7.681l-0,-15.361Z"/><path d="M4099.64,2054.83c-0,-4.24 -3.442,-7.681 -7.681,-7.681l-212.255,-0c-4.239,-0 -7.68,3.441 -7.68,7.681l-0,15.361c-0,4.239 3.441,7.681 7.68,7.681l212.255,-0c4.239,-0 7.681,-3.442 7.681,-7.681l-0,-15.361Z"/><path d="M4164.69,2120.75c-0,-4.239 -3.442,-7.681 -7.681,-7.681l-277.311,0c-4.239,0 -7.68,3.442 -7.68,7.681l-0,15.362c-0,4.239 3.441,7.681 7.68,7.681l277.311,-0c4.239,-0 7.681,-3.442 7.681,-7.681l-0,-15.362Z"/><path d="M3821.53,1786.39c-0,-4.239 -3.442,-7.681 -7.681,-7.681l-63.674,0c-4.239,0 -7.68,3.442 -7.68,7.681l-0,15.362c-0,4.239 3.441,7.68 7.68,7.68l63.674,0c4.239,0 7.681,-3.441 7.681,-7.68l-0,-15.362Z" style="fill:#a0dae3;"/><path d="M3821.53,1854.37c-0,-4.239 -3.442,-7.68 -7.681,-7.68l-63.674,-0c-4.239,-0 -7.68,3.441 -7.68,7.68l-0,15.362c-0,4.239 3.441,7.681 7.68,7.681l63.674,-0c4.239,-0 7.681,-3.442 7.681,-7.681l-0,-15.362Z" style="fill:#a0dae3;"/><path d="M3821.53,1922.95c-0,-4.239 -3.442,-7.681 -7.681,-7.681l-63.674,0c-4.239,0 -7.68,3.442 -7.68,7.681l-0,15.362c-0,4.239 3.441,7.68 7.68,7.68l63.674,0c4.239,0 7.681,-3.441 7.681,-7.68l-0,-15.362Z" style="fill:#a0dae3;"/><path d="M3821.53,1988.52c-0,-4.239 -3.442,-7.68 -7.681,-7.68l-63.674,-0c-4.239,-0 -7.68,3.441 -7.68,7.68l-0,15.362c-0,4.239 3.441,7.681 7.68,7.681l63.674,-0c4.239,-0 7.681,-3.442 7.681,-7.681l-0,-15.362Z" style="fill:#a0dae3;"/><path d="M3821.53,2054.73c-0,-4.239 -3.442,-7.681 -7.681,-7.681l-63.674,0c-4.239,0 -7.68,3.442 -7.68,7.681l-0,15.362c-0,4.239 3.441,7.68 7.68,7.68l63.674,0c4.239,0 7.681,-3.441 7.681,-7.68l-0,-15.362Z" style="fill:#a0dae3;"/><path d="M3821.53,2121.61c-0,-4.239 -3.442,-7.681 -7.681,-7.681l-63.674,0c-4.239,0 -7.68,3.442 -7.68,7.681l-0,15.362c-0,4.239 3.441,7.681 7.68,7.681l63.674,-0c4.239,-0 7.681,-3.442 7.681,-7.681l-0,-15.362Z" style="fill:#a0dae3;"/><path d="M4834.26,1184.53c-0,-4.178 -3.392,-7.569 -7.569,-7.569l-408.437,-0c-4.177,-0 -7.569,3.391 -7.569,7.569l0,15.138c0,4.178 3.392,7.57 7.569,7.57l408.437,-0c4.177,-0 7.569,-3.392 7.569,-7.57l-0,-15.138Z" style="fill:#d80d3d;"/><path d="M5632.38,1248c0,-4.444 -3.608,-8.052 -8.052,-8.052l-1205.59,0c-4.444,0 -8.052,3.608 -8.052,8.052l0,16.103c0,4.444 3.608,8.052 8.052,8.052l1205.59,0c4.444,0 8.052,-3.608 8.052,-8.052l0,-16.103Z"/><path d="M5432.21,1312.55c-0,-4.444 -3.608,-8.052 -8.052,-8.052l-1005.42,-0c-4.444,-0 -8.052,3.608 -8.052,8.052l0,16.103c0,4.444 3.608,8.052 8.052,8.052l1005.42,-0c4.444,-0 8.052,-3.608 8.052,-8.052l-0,-16.103Z"/><path d="M6231.98,1248c-0,-4.444 -3.608,-8.052 -8.052,-8.052l-431.405,0c-4.444,0 -8.052,3.608 -8.052,8.052l-0,16.103c-0,4.444 3.608,8.052 8.052,8.052l431.405,0c4.444,0 8.052,-3.608 8.052,-8.052l-0,-16.103Z"/><path d="M6231.98,1449.65c-0,-4.444 -3.608,-8.052 -8.052,-8.052l-1805.18,-0c-4.444,-0 -8.052,3.608 -8.052,8.052l0,16.103c0,4.444 3.608,8.052 8.052,8.052l1805.18,-0c4.444,-0 8.052,-3.608 8.052,-8.052l-0,-16.103Z"/><path d="M6231.98,1516.25c-0,-4.444 -3.608,-8.052 -8.052,-8.052l-1805.18,-0c-4.444,-0 -8.052,3.608 -8.052,8.052l0,16.103c0,4.444 3.608,8.052 8.052,8.052l1805.18,-0c4.444,-0 8.052,-3.608 8.052,-8.052l-0,-16.103Z"/><path d="M6231.98,1582.58c-0,-4.443 -3.608,-8.051 -8.052,-8.051l-1805.18,-0c-4.444,-0 -8.052,3.608 -8.052,8.051l0,16.104c0,4.444 3.608,8.052 8.052,8.052l1805.18,-0c4.444,-0 8.052,-3.608 8.052,-8.052l-0,-16.104Z"/><path d="M6231.98,1648.95c-0,-4.444 -3.608,-8.052 -8.052,-8.052l-1805.18,-0c-4.444,-0 -8.052,3.608 -8.052,8.052l0,16.103c0,4.444 3.608,8.052 8.052,8.052l1805.18,-0c4.444,-0 8.052,-3.608 8.052,-8.052l-0,-16.103Z"/><path d="M6231.98,1849.65c-0,-4.444 -3.608,-8.051 -8.052,-8.051l-1805.18,-0c-4.444,-0 -8.052,3.607 -8.052,8.051l0,16.104c0,4.444 3.608,8.051 8.052,8.051l1805.18,0c4.444,0 8.052,-3.607 8.052,-8.051l-0,-16.104Z"/><path d="M6231.98,1916.24c-0,-4.444 -3.608,-8.052 -8.052,-8.052l-1805.18,0c-4.444,0 -8.052,3.608 -8.052,8.052l0,16.104c0,4.443 3.608,8.051 8.052,8.051l1805.18,0c4.444,0 8.052,-3.608 8.052,-8.051l-0,-16.104Z"/><path d="M6231.98,1982.58c-0,-4.444 -3.608,-8.052 -8.052,-8.052l-1805.18,0c-4.444,0 -8.052,3.608 -8.052,8.052l0,16.104c0,4.443 3.608,8.051 8.052,8.051l1805.18,0c4.444,0 8.052,-3.608 8.052,-8.051l-0,-16.104Z"/><path d="M6231.98,2048.95c-0,-4.444 -3.608,-8.052 -8.052,-8.052l-1805.18,0c-4.444,0 -8.052,3.608 -8.052,8.052l0,16.104c0,4.444 3.608,8.051 8.052,8.051l1805.18,0c4.444,0 8.052,-3.607 8.052,-8.051l-0,-16.104Z"/><path d="M4731.76,1714.82c0,-4.444 -3.607,-8.052 -8.051,-8.052l-304.966,0c-4.444,0 -8.052,3.608 -8.052,8.052l0,16.103c0,4.444 3.608,8.052 8.052,8.052l304.966,-0c4.444,-0 8.051,-3.608 8.051,-8.052l0,-16.103Z"/><path d="M4834.26,2382.89c-0,-4.178 -3.392,-7.569 -7.569,-7.569l-408.437,-0c-4.177,-0 -7.569,3.391 -7.569,7.569l0,15.138c0,4.178 3.392,7.57 7.569,7.57l408.437,-0c4.177,-0 7.569,-3.392 7.569,-7.57l-0,-15.138Z" style="fill:#d80d3d;"/><path d="M5632.38,2446.36c0,-4.444 -3.608,-8.052 -8.052,-8.052l-1205.59,0c-4.444,0 -8.052,3.608 -8.052,8.052l0,16.103c0,4.444 3.608,8.052 8.052,8.052l1205.59,0c4.444,0 8.052,-3.608 8.052,-8.052l0,-16.103Z"/><path d="M5432.21,2510.9c-0,-4.444 -3.608,-8.052 -8.052,-8.052l-1005.42,-0c-4.444,-0 -8.052,3.608 -8.052,8.052l0,16.103c0,4.444 3.608,8.052 8.052,8.052l1005.42,-0c4.444,-0 8.052,-3.608 8.052,-8.052l-0,-16.103Z"/><path d="M6231.98,2446.36c-0,-4.444 -3.608,-8.052 -8.052,-8.052l-431.405,0c-4.444,0 -8.052,3.608 -8.052,8.052l-0,16.103c-0,4.444 3.608,8.052 8.052,8.052l431.405,0c4.444,0 8.052,-3.608 8.052,-8.052l-0,-16.103Z"/><path d="M6231.98,2648.01c-0,-4.444 -3.608,-8.052 -8.052,-8.052l-1805.18,-0c-4.444,-0 -8.052,3.608 -8.052,8.052l0,16.103c0,4.444 3.608,8.052 8.052,8.052l1805.18,-0c4.444,-0 8.052,-3.608 8.052,-8.052l-0,-16.103Z"/><path d="M6231.98,2714.6c-0,-4.444 -3.608,-8.052 -8.052,-8.052l-1805.18,-0c-4.444,-0 -8.052,3.608 -8.052,8.052l0,16.103c0,4.444 3.608,8.052 8.052,8.052l1805.18,-0c4.444,-0 8.052,-3.608 8.052,-8.052l-0,-16.103Z"/><path d="M6231.98,2780.93c-0,-4.443 -3.608,-8.051 -8.052,-8.051l-1805.18,-0c-4.444,-0 -8.052,3.608 -8.052,8.051l0,16.104c0,4.444 3.608,8.052 8.052,8.052l1805.18,-0c4.444,-0 8.052,-3.608 8.052,-8.052l-0,-16.104Z"/><path d="M6231.98,2847.31c-0,-4.444 -3.608,-8.052 -8.052,-8.052l-1805.18,-0c-4.444,-0 -8.052,3.608 -8.052,8.052l0,16.103c0,4.444 3.608,8.052 8.052,8.052l1805.18,-0c4.444,-0 8.052,-3.608 8.052,-8.052l-0,-16.103Z"/><path d="M6559.28,1220.34c0,-21.337 -17.323,-38.659 -38.659,-38.659l-77.319,-0c-21.336,-0 -38.659,17.322 -38.659,38.659l-0,77.69c-0,21.337 17.323,38.66 38.659,38.66l77.319,-0c21.336,-0 38.659,-17.323 38.659,-38.66l0,-77.69Z" style="fill:none;stroke:#e8e8e8;stroke-width:12.5px;"/><path d="M6559.28,1486.97c0,-21.336 -17.323,-38.659 -38.659,-38.659l-77.319,-0c-21.336,-0 -38.659,17.323 -38.659,38.659l-0,77.69c-0,21.337 17.323,38.66 38.659,38.66l77.319,-0c21.336,-0 38.659,-17.323 38.659,-38.66l0,-77.69Z" style="fill:none;stroke:#e8e8e8;stroke-width:12.5px;"/><path d="M6559.28,1749c0,-21.337 -17.323,-38.66 -38.659,-38.66l-77.319,0c-21.336,0 -38.659,17.323 -38.659,38.66l-0,77.69c-0,21.336 17.323,38.659 38.659,38.659l77.319,0c21.336,0 38.659,-17.323 38.659,-38.659l0,-77.69Z" style="fill:none;stroke:#e8e8e8;stroke-width:12.5px;"/><path d="M6559.28,2015.92c0,-21.336 -17.323,-38.659 -38.659,-38.659l-77.319,0c-21.336,0 -38.659,17.323 -38.659,38.659l-0,77.691c-0,21.336 17.323,38.659 38.659,38.659l77.319,0c21.336,0 38.659,-17.323 38.659,-38.659l0,-77.691Z" style="fill:none;stroke:#e8e8e8;stroke-width:12.5px;"/><path d="M6756.14,1186.84c-0,-2.849 -2.314,-5.162 -5.163,-5.162l-143.879,-0c-2.849,-0 -5.162,2.313 -5.162,5.162l-0,10.326c-0,2.849 2.313,5.162 5.162,5.162l143.879,0c2.849,0 5.163,-2.313 5.163,-5.162l-0,-10.326Z" style="fill:#a0dae3;"/><path d="M7020.48,1250.16c-0,-2.849 -2.314,-5.162 -5.163,-5.162l-408.214,-0c-2.849,-0 -5.162,2.313 -5.162,5.162l-0,10.325c-0,2.85 2.313,5.163 5.162,5.163l408.214,0c2.849,0 5.163,-2.313 5.163,-5.163l-0,-10.325Z"/><path d="M6924.7,1319.91c-0,-2.873 -2.332,-5.205 -5.205,-5.205l-312.351,0c-2.873,0 -5.204,2.332 -5.204,5.205l-0,10.408c-0,2.872 2.331,5.204 5.204,5.204l312.351,0c2.873,0 5.205,-2.332 5.205,-5.204l-0,-10.408Z"/><path d="M6756.14,1453.31c-0,-2.849 -2.314,-5.162 -5.163,-5.162l-143.879,-0c-2.849,-0 -5.162,2.313 -5.162,5.162l-0,10.325c-0,2.85 2.313,5.163 5.162,5.163l143.879,0c2.849,0 5.163,-2.313 5.163,-5.163l-0,-10.325Z" style="fill:#a0dae3;"/><path d="M7020.48,1516.64c-0,-2.849 -2.314,-5.163 -5.163,-5.163l-408.214,0c-2.849,0 -5.162,2.314 -5.162,5.163l-0,10.325c-0,2.85 2.313,5.163 5.162,5.163l408.214,-0c2.849,-0 5.163,-2.313 5.163,-5.163l-0,-10.325Z"/><path d="M6924.7,1586.38c-0,-2.872 -2.332,-5.204 -5.205,-5.204l-312.351,0c-2.873,0 -5.204,2.332 -5.204,5.204l-0,10.409c-0,2.872 2.331,5.204 5.204,5.204l312.351,-0c2.873,-0 5.205,-2.332 5.205,-5.204l-0,-10.409Z"/><path d="M6756.14,1715.22c-0,-2.849 -2.314,-5.162 -5.163,-5.162l-143.879,-0c-2.849,-0 -5.162,2.313 -5.162,5.162l-0,10.326c-0,2.849 2.313,5.162 5.162,5.162l143.879,0c2.849,0 5.163,-2.313 5.163,-5.162l-0,-10.326Z" style="fill:#a0dae3;"/><path d="M7020.48,1778.54c-0,-2.849 -2.314,-5.163 -5.163,-5.163l-408.214,0c-2.849,0 -5.162,2.314 -5.162,5.163l-0,10.325c-0,2.85 2.313,5.163 5.162,5.163l408.214,-0c2.849,-0 5.163,-2.313 5.163,-5.163l-0,-10.325Z"/><path d="M6924.7,1848.29c-0,-2.872 -2.332,-5.204 -5.205,-5.204l-312.351,0c-2.873,0 -5.204,2.332 -5.204,5.204l-0,10.409c-0,2.872 2.331,5.204 5.204,5.204l312.351,-0c2.873,-0 5.205,-2.332 5.205,-5.204l-0,-10.409Z"/><path d="M6756.14,1987.67c-0,-2.849 -2.314,-5.163 -5.163,-5.163l-143.879,0c-2.849,0 -5.162,2.314 -5.162,5.163l-0,10.325c-0,2.849 2.313,5.163 5.162,5.163l143.879,-0c2.849,-0 5.163,-2.314 5.163,-5.163l-0,-10.325Z" style="fill:#a0dae3;"/><path d="M7020.48,2050.99c-0,-2.85 -2.314,-5.163 -5.163,-5.163l-408.214,0c-2.849,0 -5.162,2.313 -5.162,5.163l-0,10.325c-0,2.849 2.313,5.163 5.162,5.163l408.214,-0c2.849,-0 5.163,-2.314 5.163,-5.163l-0,-10.325Z"/><path d="M6924.7,2120.74c-0,-2.872 -2.332,-5.204 -5.205,-5.204l-312.351,-0c-2.873,-0 -5.204,2.332 -5.204,5.204l-0,10.408c-0,2.873 2.331,5.205 5.204,5.205l312.351,-0c2.873,-0 5.205,-2.332 5.205,-5.205l-0,-10.408Z"/><path d="M4731.76,2913.17c0,-4.444 -3.607,-8.052 -8.051,-8.052l-304.966,0c-4.444,0 -8.052,3.608 -8.052,8.052l0,16.103c0,4.444 3.608,8.052 8.052,8.052l304.966,-0c4.444,-0 8.051,-3.608 8.051,-8.052l0,-16.103Z"/><path d="M4731.76,2176.36c0,-4.444 -3.607,-8.052 -8.051,-8.052l-304.966,-0c-4.444,-0 -8.052,3.608 -8.052,8.052l0,16.103c0,4.444 3.608,8.052 8.052,8.052l304.966,-0c4.444,-0 8.051,-3.608 8.051,-8.052l0,-16.103Z" style="fill:#ebebeb;"/><path d="M5234.23,2176.36c0,-4.444 -3.608,-8.052 -8.051,-8.052l-304.966,-0c-4.444,-0 -8.052,3.608 -8.052,8.052l0,16.103c0,4.444 3.608,8.052 8.052,8.052l304.966,-0c4.443,-0 8.051,-3.608 8.051,-8.052l0,-16.103Z" style="fill:#ebebeb;"/><path d="M5734.22,2176.36c0,-4.444 -3.608,-8.052 -8.052,-8.052l-304.965,-0c-4.444,-0 -8.052,3.608 -8.052,8.052l0,16.103c0,4.444 3.608,8.052 8.052,8.052l304.965,-0c4.444,-0 8.052,-3.608 8.052,-8.052l0,-16.103Z" style="fill:#ebebeb;"/><path d="M6231.98,2176.36c-0,-4.444 -3.608,-8.052 -8.052,-8.052l-304.966,-0c-4.443,-0 -8.051,3.608 -8.051,8.052l-0,16.103c-0,4.444 3.608,8.052 8.051,8.052l304.966,-0c4.444,-0 8.052,-3.608 8.052,-8.052l-0,-16.103Z" style="fill:#ebebeb;"/></g><g id="Alert-View" serif:id="Alert View"><path d="M4401.03,3387.27c0,-31.317 -25.425,-56.742 -56.741,-56.742l-662.615,-0c-31.316,-0 -56.742,25.425 -56.742,56.742l0,0.147c0,31.316 25.426,56.741 56.742,56.741l662.615,0c31.316,0 56.741,-25.425 56.741,-56.741l0,-0.147Z"/><path d="M3731.89,3585.95c0,-4.105 -3.333,-7.438 -7.438,-7.438l-272.254,-0c-4.106,-0 -7.439,3.333 -7.439,7.438l-0,14.878c-0,4.106 3.333,7.439 7.439,7.439l272.254,-0c4.105,-0 7.438,-3.333 7.438,-7.439l0,-14.878Z" style="fill:#d80d3d;"/><path d="M4261.74,3649.8c-0,-4.106 -3.334,-7.439 -7.439,-7.439l-802.11,0c-4.106,0 -7.439,3.333 -7.439,7.439l-0,14.878c-0,4.105 3.333,7.438 7.439,7.438l802.11,0c4.105,0 7.439,-3.333 7.439,-7.438l-0,-14.878Z"/><path d="M4662.86,3649.8c-0,-4.106 -3.334,-7.439 -7.439,-7.439l-273.513,0c-4.106,0 -7.439,3.333 -7.439,7.439l-0,14.878c-0,4.105 3.333,7.438 7.439,7.438l273.513,0c4.105,0 7.439,-3.333 7.439,-7.438l-0,-14.878Z"/><path d="M4132.77,3719.33c0,-4.106 -3.333,-7.439 -7.438,-7.439l-674.401,0c-4.106,0 -7.439,3.333 -7.439,7.439l-0,14.878c-0,4.105 3.333,7.439 7.439,7.439l674.401,-0c4.105,-0 7.438,-3.334 7.438,-7.439l0,-14.878Z"/><path d="M4662.86,3853.34c-0,-4.105 -3.334,-7.439 -7.439,-7.439l-1204.48,0c-4.106,0 -7.439,3.334 -7.439,7.439l-0,14.878c-0,4.105 3.333,7.439 7.439,7.439l1204.48,-0c4.105,-0 7.439,-3.334 7.439,-7.439l-0,-14.878Z"/><path d="M4662.86,4252.06c-0,-4.105 -3.334,-7.439 -7.439,-7.439l-1204.48,0c-4.106,0 -7.439,3.334 -7.439,7.439l-0,14.878c-0,4.105 3.333,7.439 7.439,7.439l1204.48,-0c4.105,-0 7.439,-3.334 7.439,-7.439l-0,-14.878Z"/><path d="M4662.86,4317.06c-0,-4.105 -3.334,-7.439 -7.439,-7.439l-1204.48,0c-4.106,0 -7.439,3.334 -7.439,7.439l-0,14.878c-0,4.105 3.333,7.439 7.439,7.439l1204.48,-0c4.105,-0 7.439,-3.334 7.439,-7.439l-0,-14.878Z"/><path d="M4662.86,4383.46c-0,-4.105 -3.334,-7.439 -7.439,-7.439l-1204.48,0c-4.106,0 -7.439,3.334 -7.439,7.439l-0,14.878c-0,4.105 3.333,7.439 7.439,7.439l1204.48,-0c4.105,-0 7.439,-3.334 7.439,-7.439l-0,-14.878Z"/><path d="M4662.86,4450.41c-0,-4.106 -3.334,-7.439 -7.439,-7.439l-1204.48,0c-4.106,0 -7.439,3.333 -7.439,7.439l-0,14.877c-0,4.106 3.333,7.439 7.439,7.439l1204.48,0c4.105,0 7.439,-3.333 7.439,-7.439l-0,-14.877Z"/><path d="M4664.11,3920.85c0,-4.105 -3.333,-7.439 -7.438,-7.439l-1204.48,0c-4.106,0 -7.439,3.334 -7.439,7.439l-0,14.878c-0,4.105 3.333,7.439 7.439,7.439l1204.48,-0c4.105,-0 7.438,-3.334 7.438,-7.439l0,-14.878Z"/><path d="M4664.11,3984.24c0,-4.105 -3.333,-7.438 -7.438,-7.438l-1204.48,-0c-4.106,-0 -7.439,3.333 -7.439,7.438l-0,14.878c-0,4.106 3.333,7.439 7.439,7.439l1204.48,-0c4.105,-0 7.438,-3.333 7.438,-7.439l0,-14.878Z"/><path d="M4664.11,4051.37c0,-4.106 -3.333,-7.439 -7.438,-7.439l-1204.48,-0c-4.106,-0 -7.439,3.333 -7.439,7.439l-0,14.877c-0,4.106 3.333,7.439 7.439,7.439l1204.48,0c4.105,0 7.438,-3.333 7.438,-7.439l0,-14.877Z"/><path d="M3669.72,4119.48c0,-4.106 -3.333,-7.439 -7.439,-7.439l-210.084,-0c-4.106,-0 -7.439,3.333 -7.439,7.439l-0,14.877c-0,4.106 3.333,7.439 7.439,7.439l210.084,0c4.106,0 7.439,-3.333 7.439,-7.439l0,-14.877Z"/><path d="M3669.72,4585.63c0,-4.105 -3.333,-7.438 -7.439,-7.438l-210.084,-0c-4.106,-0 -7.439,3.333 -7.439,7.438l-0,14.878c-0,4.106 3.333,7.439 7.439,7.439l210.084,-0c4.106,-0 7.439,-3.333 7.439,-7.439l0,-14.878Z" style="fill:#e8e8e8;"/><path d="M4001.69,4585.63c-0,-4.105 -3.333,-7.438 -7.439,-7.438l-210.084,-0c-4.106,-0 -7.439,3.333 -7.439,7.438l-0,14.878c-0,4.106 3.333,7.439 7.439,7.439l210.084,-0c4.106,-0 7.439,-3.333 7.439,-7.439l-0,-14.878Z" style="fill:#e8e8e8;"/><path d="M4330.48,4585.63c-0,-4.105 -3.334,-7.438 -7.439,-7.438l-210.085,-0c-4.105,-0 -7.439,3.333 -7.439,7.438l0,14.878c0,4.106 3.334,7.439 7.439,7.439l210.085,-0c4.105,-0 7.439,-3.333 7.439,-7.439l-0,-14.878Z" style="fill:#e8e8e8;"/><path d="M4662.86,4585.63c-0,-4.105 -3.334,-7.438 -7.439,-7.438l-210.085,-0c-4.105,-0 -7.439,3.333 -7.439,7.438l0,14.878c0,4.106 3.334,7.439 7.439,7.439l210.085,-0c4.105,-0 7.439,-3.333 7.439,-7.439l-0,-14.878Z" style="fill:#e8e8e8;"/></g><g id="Small-Notifcation" serif:id="Small Notifcation"><path d="M7203.27,4335.92c0,-38.116 -30.945,-69.062 -69.061,-69.062l-691.401,0c-38.115,0 -69.061,30.946 -69.061,69.062l0,0.97c0,38.116 30.946,69.061 69.061,69.061l691.401,-0c38.116,-0 69.061,-30.945 69.061,-69.061l0,-0.97Z"/><path d="M5839.29,3686.42c0,-43.407 -35.24,-78.647 -78.647,-78.647l-366.635,-0c-43.407,-0 -78.647,35.24 -78.647,78.647l-0,366.635c-0,43.406 35.24,78.647 78.647,78.647l366.635,-0c43.407,-0 78.647,-35.241 78.647,-78.647l0,-366.635Z" style="fill:none;stroke:#d9d9d9;stroke-width:12.5px;"/><path d="M6373.74,3626.57c0,-3.788 -3.076,-6.864 -6.864,-6.864l-299.583,0c-3.789,0 -6.864,3.076 -6.864,6.864l-0,13.729c-0,3.788 3.075,6.864 6.864,6.864l299.583,-0c3.788,-0 6.864,-3.076 6.864,-6.864l0,-13.729Z" style="fill:#d80d3d;"/><path d="M8233.07,3693.97c0,-3.789 -3.075,-6.864 -6.864,-6.864l-2158.91,-0c-3.789,-0 -6.864,3.075 -6.864,6.864l-0,13.728c-0,3.789 3.075,6.864 6.864,6.864l2158.91,0c3.789,0 6.864,-3.075 6.864,-6.864l0,-13.728Z"/><path d="M7768.91,3758.83c0,-3.788 -3.076,-6.864 -6.864,-6.864l-1694.75,0c-3.789,0 -6.864,3.076 -6.864,6.864l-0,13.729c-0,3.788 3.075,6.864 6.864,6.864l1694.75,-0c3.788,-0 6.864,-3.076 6.864,-6.864l0,-13.729Z"/><path d="M8233.07,3896.92c0,-3.788 -3.075,-6.864 -6.864,-6.864l-2158.91,0c-3.789,0 -6.864,3.076 -6.864,6.864l-0,13.729c-0,3.788 3.075,6.864 6.864,6.864l2158.91,-0c3.789,-0 6.864,-3.076 6.864,-6.864l0,-13.729Z"/><path d="M8233.07,3960.27c0,-3.789 -3.075,-6.864 -6.864,-6.864l-2158.91,-0c-3.789,-0 -6.864,3.075 -6.864,6.864l-0,13.728c-0,3.789 3.075,6.864 6.864,6.864l2158.91,0c3.789,0 6.864,-3.075 6.864,-6.864l0,-13.728Z"/><path d="M8233.07,4024.9c0,-3.789 -3.075,-6.864 -6.864,-6.864l-2158.91,-0c-3.789,-0 -6.864,3.075 -6.864,6.864l-0,13.728c-0,3.788 3.075,6.864 6.864,6.864l2158.91,0c3.789,0 6.864,-3.076 6.864,-6.864l0,-13.728Z"/><path d="M7039.25,4093.24c0,-3.788 -3.075,-6.864 -6.864,-6.864l-965.089,-0c-3.789,-0 -6.864,3.076 -6.864,6.864l-0,13.728c-0,3.789 3.075,6.865 6.864,6.865l965.089,-0c3.789,-0 6.864,-3.076 6.864,-6.865l0,-13.728Z"/></g><g id="Small-Profile-Notifcation" serif:id="Small Profile Notifcation"><circle cx="8674.24" cy="1523.21" r="46.316" style="fill:#d80d3d;"/><ellipse cx="8530.18" cy="1665.68" rx="190.372" ry="188.783"/><path d="M8946.8,1987.64c0,-5.657 -4.592,-10.249 -10.248,-10.249l-816.421,0c-5.657,0 -10.249,4.592 -10.249,10.249l0,20.497c0,5.656 4.592,10.248 10.249,10.248l816.421,-0c5.656,-0 10.248,-4.592 10.248,-10.248l0,-20.497Z"/><path d="M8740.6,2072.3c0,-5.657 -4.592,-10.249 -10.248,-10.249l-414.944,0c-5.657,0 -10.249,4.592 -10.249,10.249l0,20.496c0,5.657 4.592,10.249 10.249,10.249l414.944,-0c5.656,-0 10.248,-4.592 10.248,-10.249l0,-20.496Z"/><path d="M9073.52,2293.18c0,-5.657 -4.592,-10.249 -10.248,-10.249l-1076.65,0c-5.656,0 -10.248,4.592 -10.248,10.249l0,20.496c0,5.657 4.592,10.249 10.248,10.249l1076.65,-0c5.656,-0 10.248,-4.592 10.248,-10.249l0,-20.496Z"/><path d="M9073.52,2358.26c0,-5.657 -4.592,-10.249 -10.248,-10.249l-1076.65,0c-5.656,0 -10.248,4.592 -10.248,10.249l0,20.496c0,5.657 4.592,10.249 10.248,10.249l1076.65,-0c5.656,-0 10.248,-4.592 10.248,-10.249l0,-20.496Z"/><path d="M9073.52,2427c0,-5.656 -4.592,-10.248 -10.248,-10.248l-1076.65,-0c-5.656,-0 -10.248,4.592 -10.248,10.248l0,20.497c0,5.656 4.592,10.248 10.248,10.248l1076.65,0c5.656,0 10.248,-4.592 10.248,-10.248l0,-20.497Z"/><path d="M9073.52,2492.79c0,-5.657 -4.592,-10.249 -10.248,-10.249l-1076.65,0c-5.656,0 -10.248,4.592 -10.248,10.249l0,20.496c0,5.657 4.592,10.249 10.248,10.249l1076.65,-0c5.656,-0 10.248,-4.592 10.248,-10.249l0,-20.496Z"/><path d="M8873.96,2556.66c0,-5.656 -4.592,-10.248 -10.248,-10.248l-683.346,-0c-5.656,-0 -10.248,4.592 -10.248,10.248l-0,20.497c-0,5.656 4.592,10.248 10.248,10.248l683.346,0c5.656,0 10.248,-4.592 10.248,-10.248l0,-20.497Z"/><path d="M9070.62,2862.95c-0,-39.608 -32.158,-71.765 -71.766,-71.765l-953.616,-0c-39.608,-0 -71.766,32.157 -71.766,71.765l0,0.636c0,39.609 32.158,71.766 71.766,71.766l953.616,-0c39.608,-0 71.766,-32.157 71.766,-71.766l-0,-0.636Z" style="fill:#a0dae3;"/></g></svg>